<?xml version="1.0" encoding="UTF-8"?>
<svg width="95px" height="95px" viewBox="0 0 95 95" version="1.1" xmlns="http://www.w3.org/2000/svg" xmlns:xlink="http://www.w3.org/1999/xlink">
    <!-- Generator: Sketch 47.1 (45422) - http://www.bohemiancoding.com/sketch -->
    <title>zero copy</title>
    <desc>Created with Sketch.</desc>
    <defs>
        <linearGradient x1="50%" y1="79.1040812%" x2="50%" y2="0.000205873149%" id="linearGradient-1">
            <stop stop-color="#04B6F0" offset="0%"></stop>
            <stop stop-color="#3ECAF0" offset="100%"></stop>
        </linearGradient>
    </defs>
    <g id="Symbols" stroke="none" stroke-width="1" fill="none" fill-rule="evenodd">
        <g id="zero-copy" fill-rule="nonzero" fill="url(#linearGradient-1)">
            <g id="OpenCart_logo" transform="translate(3.000000, 38.000000)">
                <path d="M8.94186,9.18796068 C8.94186,10.5301755 8.542368,11.6607475 7.74054,12.5759724 C6.903792,13.5348925 5.81652,14.0162946 4.485564,14.0162946 C3.15108,14.0162946 2.067336,13.5348925 1.230552,12.5759724 C0.4284,11.6607475 0.02592,10.5301755 0.02592,9.18796068 C0.02592,7.84204166 0.4284,6.71182932 1.230552,5.79991299 C2.076624,4.8499477 3.163932,4.37519882 4.485564,4.37519882 C5.81652,4.37519882 6.903792,4.8499477 7.74054,5.79991299 C8.542368,6.71182932 8.94186,7.84204166 8.94186,9.18796068 Z M6.2919,9.18796068 C6.2919,8.58000447 6.146244,8.066847 5.854644,7.65197668 C5.528376,7.18039255 5.071788,6.94612891 4.485564,6.94612891 C3.899124,6.94612891 3.442716,7.18039255 3.116124,7.65197668 C2.8215,8.066847 2.6757,8.58000447 2.6757,9.18796068 C2.6757,9.79253635 2.8215,10.3118435 3.116124,10.739193 C3.442716,11.2107772 3.899124,11.4454004 4.485564,11.4454004 C5.071788,11.4454004 5.528376,11.2107772 5.854644,10.739193 C6.146244,10.3118435 6.2919,9.79253635 6.2919,9.18796068 Z M18.52326,9.18796068 C18.52326,10.4417063 18.161892,11.5371783 17.435988,12.4743766 C16.659468,13.5001521 15.657912,14.0162946 14.440824,14.0162946 C13.581756,14.0162946 12.853008,13.7662072 12.2571,13.2723619 C12.2571,13.3860772 12.269772,13.6616265 12.295224,14.1021385 C12.320532,14.5449162 12.333024,14.9059138 12.333024,15.1909213 C12.333024,16.7649903 11.863944,17.5499928 10.926,17.5499928 C10.542312,17.5499928 10.228716,17.4138005 9.978192,17.1445808 C9.731016,16.8725559 9.60732,16.5457952 9.60732,16.160019 L9.60732,5.9234822 C9.60732,5.54982559 9.734184,5.2267331 9.987696,4.95470821 C10.241172,4.68548845 10.555128,4.54965582 10.929132,4.54965582 C11.493072,4.54965582 11.905236,4.83081533 12.165228,5.39169584 C12.719844,4.71411507 13.477392,4.37519882 14.437656,4.37519882 C15.657912,4.37519882 16.6563,4.8815233 17.435988,5.89820014 C18.158724,6.83870713 18.52326,7.93417912 18.52326,9.18796068 Z M15.8733,9.18796068 C15.8733,8.58000447 15.724692,8.066847 15.433056,7.65197668 C15.106284,7.18039255 14.650056,6.94612891 14.063616,6.94612891 C13.477392,6.94612891 13.020984,7.18039255 12.694392,7.65197668 C12.402756,8.066847 12.2571,8.58000447 12.2571,9.18796068 C12.2571,9.79253635 12.402756,10.3118435 12.694392,10.739193 C13.020984,11.2107772 13.477392,11.4454004 14.063616,11.4454004 C14.650056,11.4454004 15.106284,11.2107772 15.433056,10.739193 C15.724692,10.3118435 15.8733,9.79253635 15.8733,9.18796068 Z M28.164744,8.90327678 C28.164744,9.34609043 28.060056,9.65005055 27.850824,9.82134279 C27.641772,9.98893084 27.31536,10.0744151 26.874756,10.0744151 L22.091868,10.0744151 C22.091868,10.5810633 22.32972,10.9703279 22.8051,11.2423528 C23.188608,11.4548947 23.657688,11.5628199 24.212304,11.5628199 C24.64362,11.5628199 25.160112,11.4197947 25.765488,11.1384554 C26.3709,10.853268 26.760564,10.7137312 26.928864,10.7137312 C27.236124,10.7137312 27.495936,10.8246773 27.711504,11.0526474 C27.923724,11.2776326 28.03176,11.5498373 28.03176,11.8634355 C28.03176,12.588092 27.489816,13.152317 26.405496,13.5573694 C25.578396,13.8611497 24.73848,14.0162946 23.879736,14.0162946 C22.49784,14.0162946 21.382092,13.5573694 20.52954,12.6425041 C19.676772,11.7272432 19.249164,10.5778985 19.249164,9.18796068 C19.249164,7.86415897 19.692756,6.73394662 20.58012,5.79077836 C21.464316,4.84678295 22.56444,4.37519882 23.876424,4.37519882 C25.09668,4.37519882 26.117208,4.82168071 26.935164,5.71446466 C27.752616,6.60757229 28.164744,7.67128886 28.164744,8.90327678 Z M25.515144,8.23795943 C25.502328,7.8325474 25.315416,7.46540011 24.954048,7.13266951 C24.592644,6.80044239 24.209316,6.6360191 23.803488,6.6360191 C23.385204,6.6360191 22.995216,6.80044239 22.633992,7.13266951 C22.272804,7.46540011 22.091868,7.8325474 22.091868,8.23795943 L25.515144,8.23795943 Z M37.06776,12.4518997 C37.06776,12.838539 36.94428,13.1644366 36.69732,13.4367852 C36.44676,13.7061847 36.13284,13.842377 35.749404,13.842377 C34.823916,13.842377 34.360992,13.1077228 34.360992,11.6417949 C34.360992,11.3599521 34.380144,10.9168148 34.418088,10.3056938 C34.45938,9.69759377 34.478532,9.2512917 34.478532,8.96944888 C34.478532,7.41451233 33.974496,6.6360191 32.969772,6.6360191 C31.964904,6.6360191 31.464216,7.41451233 31.464216,8.96944888 C31.464216,9.2512917 31.48002,9.69759377 31.508496,10.3056938 C31.540284,10.9168148 31.556088,11.3599521 31.556088,11.6417949 C31.556088,13.1077228 31.09968,13.842377 30.187008,13.842377 C29.80332,13.842377 29.489724,13.7061847 29.242368,13.4367852 C28.992024,13.1644366 28.868364,12.838539 28.868364,12.4518997 L28.868364,5.92067708 C28.868364,5.53684291 28.992024,5.21130493 29.242368,4.94837871 C29.489724,4.68232369 29.806668,4.54965582 30.190176,4.54965582 C30.824028,4.54965582 31.264452,4.83081533 31.511628,5.39169584 C31.939596,4.71411507 32.696964,4.37519882 33.781068,4.37519882 C34.785792,4.37519882 35.584596,4.64093017 36.171,5.16969563 C36.77004,5.73690564 37.06776,6.51543483 37.06776,7.50664979 L37.06776,12.4518997 Z M45.38124,12.1705604 C45.38124,12.7688425 44.99208,13.2435914 44.21196,13.5922896 C43.5942,13.8737009 42.9228,14.0183445 42.24384,14.0162946 C40.90896,14.0162946 39.82536,13.5348925 38.98872,12.5759724 C38.18664,11.6607475 37.78416,10.5301755 37.78416,9.18796068 C37.78416,7.84204166 38.19312,6.70567963 39.01392,5.77466689 C39.83472,4.84081308 40.90896,4.37519882 42.24384,4.37519882 C43.01388,4.37519882 43.67628,4.48912992 44.22816,4.71411507 C44.99784,5.0180752 45.38124,5.49278812 45.38124,6.13882924 C45.38124,6.46472686 45.28008,6.75289918 45.07704,7.00316639 C44.87436,7.25008903 44.61408,7.37678704 44.29764,7.37678704 C44.08164,7.37678704 43.77096,7.30396176 43.3656,7.16179962 C42.95988,7.01578944 42.63696,6.94612891 42.39936,6.94612891 C41.76828,6.94612891 41.27688,7.17093425 40.92516,7.62036511 C40.59864,8.02577714 40.43376,8.5450843 40.43376,9.18796068 C40.43376,9.79253635 40.57956,10.3056938 40.87476,10.7204203 C41.20056,11.2049511 41.66064,11.4454004 42.24672,11.4454004 C42.507,11.4454004 42.8616,11.3694104 43.31484,11.213906 C43.76844,11.0624653 44.09496,10.9833106 44.29764,10.9833106 C44.59248,10.9833106 44.84556,11.1096849 45.06156,11.3567873 C45.27396,11.6068747 45.38124,11.8757349 45.38124,12.1705604 Z M55.0134,12.4518997 C55.0134,12.838539 54.88992,13.1644366 54.6426,13.4367852 C54.3924,13.7061847 54.0756,13.842377 53.69148,13.842377 C53.11476,13.842377 52.70292,13.5603544 52.4556,12.9999774 C51.9012,13.6777739 51.1434,14.0162946 50.18328,14.0162946 C48.95388,14.0162946 47.94588,13.5001521 47.16576,12.4743766 C46.45584,11.5371783 46.09836,10.4417063 46.09836,9.18796068 C46.09836,7.93417912 46.45584,6.83870713 47.16576,5.89820014 C47.95848,4.8815233 48.96288,4.37519882 50.18328,4.37519882 C51.1434,4.37519882 51.9012,4.71411507 52.4556,5.39169584 C52.70292,4.83081533 53.11476,4.54965582 53.69148,4.54965582 C54.06588,4.54965582 54.3798,4.68548845 54.6336,4.95470821 C54.88668,5.2267331 55.0134,5.54666084 55.0134,5.92067708 L55.0134,12.4518997 Z M52.3638,9.18796068 C52.3638,8.58000447 52.21836,8.066847 51.9264,7.65197668 C51.58728,7.18039255 51.1308,6.94612891 50.55732,6.94612891 C49.97088,6.94612891 49.51476,7.18039255 49.18788,7.65197668 C48.8934,8.066847 48.74796,8.58000447 48.74796,9.18796068 C48.74796,9.79253635 48.8898,10.3118435 49.17168,10.739193 C49.50828,11.2107772 49.97088,11.4454004 50.55732,11.4454004 C51.1434,11.4454004 51.59988,11.2107772 51.9264,10.739193 C52.21836,10.3118435 52.3638,9.79253635 52.3638,9.18796068 Z M61.7742,5.74604027 C61.7742,6.3127468 61.49844,6.70215524 60.94692,6.91415772 C60.4368,7.08544996 59.9292,7.25990696 59.42232,7.43979439 C58.8672,7.75673719 58.5918,8.34556102 58.5918,9.20058373 L58.5918,12.4518997 C58.5918,12.838539 58.46472,13.1644366 58.21812,13.4367852 C57.9672,13.7061847 57.6504,13.842377 57.267,13.842377 C56.88072,13.842377 56.5632,13.7061847 56.3166,13.4367852 C56.06568,13.1644366 55.9422,12.838539 55.9422,12.4518997 L55.9422,5.92067708 C55.9422,5.53684291 56.06568,5.21130493 56.313,4.94837871 C56.5632,4.68232369 56.88072,4.54965582 57.26412,4.54965582 C57.89772,4.54965582 58.338,4.83081533 58.58568,5.39169584 C59.15304,4.71411507 59.7618,4.37519882 60.41772,4.37519882 C60.7914,4.37519882 61.1118,4.51106741 61.37784,4.78025122 C61.64064,5.05263573 61.7742,5.37554841 61.7742,5.74604027 Z M68.68692,5.86644472 C68.68692,6.4552326 68.45544,6.82572445 67.99644,6.98435769 C67.77072,7.06333266 67.29804,7.10440252 66.57876,7.10440252 L66.57876,12.4518997 C66.57876,12.838539 66.45204,13.1644366 66.20544,13.4367852 C65.95452,13.7061847 65.63772,13.842377 65.25432,13.842377 C64.88064,13.842377 64.56312,13.7061847 64.30932,13.4367852 C64.05624,13.1644366 63.92952,12.838539 63.92952,12.4518997 L63.92952,7.10440252 C63.38412,7.10440252 62.98812,7.03474199 62.73792,6.89890936 C62.39592,6.70884438 62.22672,6.36363458 62.22672,5.86644472 C62.22672,5.36957853 62.40132,5.03069824 62.75304,4.8499477 C62.991,4.7169202 63.38412,4.64758334 63.92952,4.64758334 L63.92952,3.51402643 C63.92952,2.18112605 64.36944,1.51631219 65.25432,1.51631219 C66.13524,1.51631219 66.57876,2.18112605 66.57876,3.51402643 L66.57876,4.64758334 C67.29804,4.64758334 67.77072,4.6886532 67.99644,4.76762817 C68.45544,4.92593773 68.68692,5.2935885 68.68692,5.86644472 Z M89.97408,4.25867838 C89.96688,3.44594828 88.46352,3.0770388 84.57192,3.0770388 C75.44088,3.0770388 73.12428,2.68741457 70.64532,0.0814204584 C71.68824,1.64617494 72.25884,4.58108757 81.91008,4.43504142 C91.97964,4.28007642 85.8366,7.02877212 84.0492,10.1342577 C87.27264,7.26026659 89.96436,5.3659103 89.97408,4.27043831 L89.97408,4.25867838 Z M77.14296,12.6042394 C77.1426,13.3596803 76.52052,13.9811946 75.76416,13.9813744 C75.00024,13.9813744 74.38248,13.3643195 74.38248,12.6042394 C74.38248,12.6038798 74.38248,12.6035201 74.38248,12.6031605 C74.38248,11.8464609 75.00564,11.2237598 75.76344,11.2237598 C75.7638,11.2237598 75.7638,11.2237598 75.76416,11.2237598 C76.52556,11.2237598 77.14296,11.8409945 77.14296,12.6042394 Z M83.43108,12.6042394 C83.43072,13.3596803 82.80864,13.9811946 82.05228,13.9813744 C81.28908,13.9813744 80.67096,13.3643195 80.67096,12.6042394 C80.67096,12.6038798 80.67096,12.6035201 80.67096,12.6031605 C80.67096,11.8464609 81.29412,11.2237598 82.05156,11.2237598 C82.05192,11.2237598 82.05192,11.2237598 82.05228,11.2237598 C82.81368,11.2237598 83.43108,11.8409945 83.43108,12.6042394 Z" id="Shape"></path>
            </g>
        </g>
    </g>
</svg>
