<?xml version="1.0" encoding="UTF-8"?>
<svg width="48px" height="48px" viewBox="0 0 48 48" version="1.1" xmlns="http://www.w3.org/2000/svg" xmlns:xlink="http://www.w3.org/1999/xlink">
    <title>Shape</title>
    <g id="Symbols" stroke="none" stroke-width="1" fill="none" fill-rule="evenodd">
        <g id="app_icon_offer" transform="translate(-57.000000, 1.000000)" fill="rgb(252, 84, 108)" fill-rule="nonzero">
            <g id="new" transform="translate(57.000000, -1.000000)">
                <path d="M45.2700105,20.4530408 C44.531266,19.9083255 43.6004989,19.2279206 43.4878091,18.7833828 C43.5351544,17.9228736 43.7808809,17.0850608 44.2057176,16.3352947 C44.8568145,14.8409474 45.5287472,13.2924025 44.7816879,12.0046714 C44.0346286,10.7169402 42.3358685,10.5082697 40.7018659,10.3350134 C39.8549314,10.3293393 39.020518,10.1301582 38.2623071,9.75273159 C37.8843266,8.99181288 37.6858477,8.1542936 37.6821305,7.30464344 C37.4985205,5.67049765 37.308552,3.980002 36.0126189,3.22446392 C34.7166858,2.46892585 33.1661246,3.1305475 31.6720061,3.7900169 C30.9215231,4.21469523 30.083099,4.46034538 29.2220782,4.5079884 C28.7713189,4.38697317 28.0931256,3.46443996 27.5525666,2.72563075 C26.6051698,1.44836737 25.5387249,0 23.9986305,0 C22.4585361,0 21.392189,1.44836737 20.450955,2.72563075 C19.9042332,3.46649438 19.2259421,4.39528869 18.7814433,4.51004282 C17.9212052,4.45819313 17.0836614,4.21283647 16.3315155,3.79207132 C14.8289844,3.13044967 13.2805752,2.47098027 11.9971632,3.21399616 C10.7137512,3.95701204 10.4988384,5.66002988 10.3151305,7.30454561 C10.3091634,8.15126088 10.1107823,8.98555179 9.7349539,9.74431824 C8.97821036,10.1163642 8.14702502,10.3118278 7.30380768,10.3161323 C5.66775085,10.4997585 3.97525128,10.6897436 3.22193148,11.9857902 C2.46861167,13.2818369 3.13027317,14.8305775 3.78968477,16.3269792 C4.21589103,17.079191 4.46161747,17.9200365 4.50759336,18.7833828 C4.38658874,19.2341817 3.46413636,19.9145866 2.7253919,20.4530408 C1.44824044,21.392205 0,22.4607978 0,24.0010272 C0,25.5412566 1.44824044,26.6098494 2.72754396,27.5490137 C3.46628843,28.0937289 4.39705559,28.7741339 4.50974542,29.2186716 C4.46240004,30.0791808 4.2166736,30.9169936 3.79183683,31.6667597 C3.14074002,33.161107 2.46880732,34.7096519 3.21586657,35.9973831 C3.96292583,37.2851142 5.66168595,37.4937848 7.29568854,37.667041 C8.14262307,37.6727151 8.97703651,37.8718962 9.73524736,38.2493228 C10.1132278,39.0102415 10.3117067,39.8477608 10.3154239,40.697411 C10.499034,42.3315568 10.6890025,44.0220524 11.9849356,44.7775905 C13.2808687,45.5331286 14.8189088,44.8527236 16.3151794,44.2015698 C17.0731946,43.7815872 17.9165097,43.5389698 18.7818346,43.4920116 C19.232594,43.6130268 19.9107872,44.53556 20.4513463,45.2743693 C21.3924825,46.5516326 22.4589274,48 23.9990218,48 C25.5391162,48 26.6054633,46.5516326 27.5466973,45.2743693 C28.0934191,44.5335056 28.7717102,43.6047113 29.2162089,43.4899572 C30.0770341,43.5386763 30.9151647,43.7842286 31.6661368,44.2079287 C33.1603531,44.8590826 34.7087623,45.5269653 35.9942286,44.7860038 C37.2796948,44.0451402 37.4925534,42.3399701 37.6762613,40.7037699 C37.6822284,39.8570546 37.8806094,39.0227637 38.2564378,38.2639973 C39.0145509,37.8889186 39.8480839,37.6912049 40.6938446,37.6859221 C42.3299014,37.5022959 44.022401,37.3123108 44.7757208,36.0162642 C45.5290406,34.7202175 44.8487931,33.1820426 44.1997506,31.6856409 C43.7749138,30.9296136 43.5320242,30.0849528 43.4902546,29.2187694 C43.6112592,28.7679706 44.5337116,28.0875657 45.272456,27.5491115 C46.5496075,26.6078928 48,25.5393 48,24.001125 C48,22.4629501 46.5492162,21.392205 45.2700105,20.4530408 Z" id="Shape"></path>
            </g>
        </g>
    </g>
</svg>