<svg
  xmlns="http://www.w3.org/2000/svg"
  width="576" 
  height="144"
  viewBox="0 0 576 144"
  id="hitpay"
  fill="currentColor">
  <g fill-rule="evenodd">
    <g fill-rule="nonzero" transform="translate(186 23)">
      <polygon points="50.71 10.183 66.858 10.183 66.858 90.135 50.71 90.135 50.71 55.887 16.349 55.887 16.349 90.135 .196 90.135 .196 10.183 16.349 10.183 16.349 43.518 50.71 43.518"/>
      <path d="M105.783 10.526C105.783 13.275 104.828 15.606 102.919 17.515 101.007 19.422 98.699 20.374 95.992 20.374 93.275 20.374 90.97 19.422 89.055 17.515 87.15 15.606 86.193 13.274 86.193 10.526 86.193 7.779 87.15 5.448 89.055 3.539 90.969 1.632 93.275.675 95.992.675 98.699.675 101.007 1.632 102.919 3.539 104.828 5.449 105.783 7.78 105.783 10.526zM87.912 90.135L87.912 26.677 104.062 26.677 104.062 90.135 87.912 90.135zM149.114 76.622L156.791 76.622 156.791 90.135 146.594 90.135C140.1 90.135 135.102 88.645 131.587 85.668 128.072 82.689 126.322 77.766 126.322 70.892L126.322 39.851 119.563 39.851 119.563 26.677 126.322 26.677 126.322 10.985 142.47 10.985 142.47 26.677 156.675 26.677 156.675 39.851 142.47 39.851 142.47 70.892C142.47 72.954 142.966 74.424 143.959 75.303 144.952 76.184 146.668 76.622 149.114 76.622zM226.592 50.046C224.53 52.567 221.535 54.57 217.601 56.06 213.665 57.547 209.065 58.292 203.795 58.292L190.509 58.292 190.509 90.135 174.36 90.135 174.36 10.183 203.796 10.183C213.036 10.183 220.159 12.492 225.163 17.113 230.165 21.736 232.664 27.178 232.664 33.437 232.663 39.697 230.639 45.233 226.592 50.046zM190.509 45.92L203.795 45.92C207.845 45.92 210.94 44.873 213.074 42.773 215.212 40.672 216.284 37.832 216.284 34.237 216.284 30.649 215.212 27.808 213.074 25.702 210.939 23.606 207.845 22.555 203.795 22.555L190.509 22.555 190.509 45.92zM251.266 81.831C245.575 75.687 242.734 67.838 242.734 58.292 242.734 48.747 245.556 40.939 251.209 34.866 256.858 28.797 264.039 25.764 272.742 25.764 281.447 25.764 288.09 29.349 292.672 36.528L292.672 26.677 308.71 26.677 308.71 90.135 292.672 90.135 292.672 79.482C287.86 87.198 281.182 91.053 272.629 91.053 264.073 91.053 256.952 87.98 251.266 81.831zM287.633 72.093C290.992 68.77 292.671 64.209 292.671 58.407 292.671 52.602 290.992 48.042 287.633 44.719 284.269 41.399 280.339 39.736 275.835 39.736 271.327 39.736 267.414 41.378 264.091 44.661 260.773 47.945 259.111 52.487 259.111 58.292 259.111 64.098 260.79 68.68 264.149 72.035 267.509 75.399 271.427 77.078 275.894 77.078 280.359 77.078 284.269 75.418 287.633 72.093z"/>
      <polygon points="346.589 88.991 321.735 26.677 339.83 26.677 355.981 71.809 373.047 26.677 389.887 26.677 350.254 120.146 333.416 120.146"/>
    </g>
    <polygon fill-rule="nonzero" points="84.024 50.15 90.052 50.15 90.052 95.559 84.024 95.559 84.024 75.052 61.156 75.052 61.156 95.559 55.193 95.559 55.193 50.15 61.156 50.15 61.156 70.334 84.024 70.334"/>
    <path d="M140.568,70.488 C140.552,109.15 109.032,140.633 70.299,140.679 C31.527,140.722 -0.023,109.117 0.002,70.262 C0.027,31.63 31.741,0.006 70.331,0.133 C109.196,0.265 140.575,31.698 140.568,70.488 Z M70.324,135.652 C106.634,135.576 135.587,106.369 135.532,69.888 C135.477,34.293 106.157,5.197 70.304,5.162 C34.033,5.123 4.967,34.441 5.034,70.992 C5.098,106.551 34.561,135.727 70.324,135.652 Z"/>
    <path d="M70.267,125.609 C96.945,125.663 119.993,106.433 124.581,80.206 C125.123,77.083 125.252,73.885 125.48,70.712 C125.6,69.054 126.487,67.922 127.94,67.883 C129.429,67.844 130.536,69.02 130.474,70.731 C129.577,95.596 118.148,114.025 95.797,124.829 C60.924,141.677 19.099,120.828 11.462,82.831 C6.569,58.498 14.504,38.363 33.65,22.629 C34.035,22.313 34.485,22.02 34.958,21.87 C36.104,21.501 37.063,21.886 37.739,22.857 C38.389,23.798 38.419,24.824 37.626,25.668 C36.881,26.473 35.986,27.137 35.149,27.856 C20.571,40.373 13.561,56.293 15.384,75.379 C17.386,96.275 28.378,111.414 47.324,120.592 C54.333,123.988 62.302,125.599 70.267,125.609 Z"/>
    <path d="M70.094,20.089 C90.107,20.975 105.033,29.774 114.772,47.14 C115.063,47.654 115.333,48.192 115.561,48.736 C116.144,50.127 115.679,51.492 114.44,52.098 C113.139,52.732 111.703,52.25 111.027,50.848 C109.3,47.274 107.142,43.972 104.531,40.988 C96.635,31.979 86.757,26.707 74.801,25.501 C55.364,23.543 36.965,34.176 29.065,51.865 C18.292,75.983 30.253,104.026 55.118,112.966 C55.674,113.166 56.248,113.36 56.753,113.651 C57.832,114.271 58.222,115.463 57.793,116.621 C57.398,117.67 56.292,118.394 55.162,118.173 C54.254,117.996 53.359,117.682 52.501,117.327 C34.339,109.816 23.326,96.431 20.615,76.938 C16.911,50.334 35.015,25.75 61.324,21.03 C64.278,20.502 67.303,20.38 70.094,20.089 Z"/>
  </g>
</svg>
