<svg width="100" height="29" viewBox="0 0 100 29" fill="none" xmlns="http://www.w3.org/2000/svg">
<g clip-path="url(#clip0_17_240)">
<path d="M21.48 5.42001C21.46 5.28001 21.34 5.20001 21.24 5.20001C21.14 5.20001 19.16 5.16001 19.16 5.16001C19.16 5.16001 17.5 3.56001 17.34 3.38001C17.18 3.22001 16.86 3.26001 16.74 3.30001C16.74 3.30001 16.42 3.40001 15.9 3.56001C15.82 3.28001 15.68 2.94001 15.5 2.58001C14.92 1.46001 14.04 0.860012 13 0.860012C12.92 0.860012 12.86 0.860012 12.78 0.880012C12.74 0.840012 12.72 0.800012 12.68 0.780012C12.22 0.300012 11.64 0.0600124 10.94 0.0800124C9.6 0.120012 8.26 1.10001 7.16 2.82001C6.4 4.04001 5.82 5.56001 5.64 6.74001C4.1 7.22001 3.02 7.56001 2.98 7.56001C2.2 7.80001 2.18 7.82001 2.08 8.56001C2.04 9.12001 0 24.9 0 24.9L17.12 27.86L24.54 26.02C24.52 26.02 21.5 5.56001 21.48 5.42001ZM15.04 3.84001C14.64 3.96001 14.2 4.10001 13.72 4.26001C13.72 3.58001 13.62 2.62001 13.32 1.82001C14.34 1.98001 14.84 3.14001 15.04 3.84001ZM12.82 4.52001C11.92 4.80001 10.94 5.10001 9.96 5.40001C10.24 4.34001 10.76 3.30001 11.4 2.60001C11.64 2.34001 11.98 2.06001 12.36 1.90001C12.76 2.68001 12.84 3.78001 12.82 4.52001ZM10.98 0.980012C11.3 0.980012 11.56 1.04001 11.78 1.20001C11.42 1.38001 11.06 1.66001 10.74 2.02001C9.88 2.94001 9.22 4.36001 8.96 5.74001C8.14 6.00001 7.34 6.24001 6.62 6.46001C7.1 4.28001 8.92 1.04001 10.98 0.980012Z" fill="#95BF47"/>
<path d="M21.2399 5.20003C21.1399 5.20003 19.1599 5.16003 19.1599 5.16003C19.1599 5.16003 17.4999 3.56003 17.3399 3.38003C17.2799 3.32003 17.1999 3.28003 17.1199 3.28003V27.86L24.5399 26.02C24.5399 26.02 21.5199 5.56003 21.4999 5.42003C21.4599 5.28003 21.3399 5.20003 21.2399 5.20003Z" fill="#5E8E3E"/>
<path d="M12.9999 9.02003L12.1399 12.24C12.1399 12.24 11.1799 11.8 10.0399 11.88C8.35994 11.98 8.35993 13.04 8.35993 13.3C8.45993 14.74 12.2399 15.06 12.4599 18.44C12.6199 21.1 11.0599 22.92 8.77994 23.06C6.05994 23.2 4.55994 21.6 4.55994 21.6L5.13994 19.14C5.13994 19.14 6.65994 20.28 7.85994 20.2C8.63993 20.16 8.93993 19.5 8.89993 19.06C8.77993 17.18 5.69994 17.3 5.49994 14.2C5.33994 11.6 7.03994 8.98003 10.7999 8.74003C12.2599 8.64003 12.9999 9.02003 12.9999 9.02003Z" fill="white"/>
<path d="M34.5799 15.88C33.7199 15.42 33.2799 15.02 33.2799 14.48C33.2799 13.8 33.8999 13.36 34.8599 13.36C35.9799 13.36 36.9799 13.82 36.9799 13.82L37.7599 11.42C37.7599 11.42 37.0399 10.86 34.9199 10.86C31.9599 10.86 29.8999 12.56 29.8999 14.94C29.8999 16.3 30.8599 17.32 32.1399 18.06C33.1799 18.64 33.5399 19.06 33.5399 19.68C33.5399 20.32 33.0199 20.84 32.0599 20.84C30.6399 20.84 29.2799 20.1 29.2799 20.1L28.4399 22.5C28.4399 22.5 29.6799 23.34 31.7799 23.34C34.8199 23.34 37.0199 21.84 37.0199 19.14C36.9999 17.68 35.8999 16.64 34.5799 15.88Z" fill="black"/>
<path d="M46.7 10.82C45.2 10.82 44.02 11.54 43.12 12.62L43.08 12.6L44.38 5.79999H41L37.7 23.12H41.08L42.2 17.2C42.64 14.96 43.8 13.58 44.88 13.58C45.64 13.58 45.94 14.1 45.94 14.84C45.94 15.3 45.9 15.88 45.8 16.34L44.52 23.12H47.9L49.22 16.12C49.36 15.38 49.46 14.5 49.46 13.9C49.48 11.98 48.48 10.82 46.7 10.82Z" fill="black"/>
<path d="M57.14 10.82C53.06 10.82 50.36 14.5 50.36 18.6C50.36 21.22 51.98 23.34 55.02 23.34C59.02 23.34 61.72 19.76 61.72 15.56C61.74 13.14 60.32 10.82 57.14 10.82ZM55.48 20.76C54.32 20.76 53.84 19.78 53.84 18.54C53.84 16.6 54.84 13.44 56.68 13.44C57.88 13.44 58.28 14.48 58.28 15.48C58.28 17.56 57.26 20.76 55.48 20.76Z" fill="black"/>
<path d="M70.3999 10.82C68.1199 10.82 66.8199 12.84 66.8199 12.84H66.7799L66.9799 11.02H63.9799C63.8399 12.24 63.5599 14.12 63.2999 15.52L60.9399 27.92H64.3199L65.2599 22.9H65.3399C65.3399 22.9 66.0399 23.34 67.3199 23.34C71.2999 23.34 73.8999 19.26 73.8999 15.14C73.8999 12.86 72.8799 10.82 70.3999 10.82ZM67.1599 20.8C66.2799 20.8 65.7599 20.3 65.7599 20.3L66.3199 17.14C66.7199 15.02 67.8199 13.62 68.9999 13.62C70.0399 13.62 70.3599 14.58 70.3599 15.48C70.3599 17.68 69.0599 20.8 67.1599 20.8Z" fill="black"/>
<path d="M78.7399 5.95999C77.6599 5.95999 76.7999 6.81999 76.7999 7.91999C76.7999 8.91999 77.4399 9.61999 78.3999 9.61999H78.4399C79.4999 9.61999 80.3999 8.89999 80.4199 7.65999C80.4199 6.67999 79.7599 5.95999 78.7399 5.95999Z" fill="black"/>
<path d="M74 23.1H77.38L79.68 11.1H76.28L74 23.1Z" fill="black"/>
<path d="M88.3 11.08H85.9399L86.0599 10.52C86.2599 9.36 86.9399 8.34 88.08 8.34C88.68 8.34 89.16 8.52 89.16 8.52L89.82 5.86C89.82 5.86 89.24 5.56 87.98 5.56C86.7799 5.56 85.5799 5.9 84.6599 6.68C83.4999 7.66 82.9599 9.08 82.6999 10.52L82.5999 11.08H81.0199L80.5199 13.64H82.0999L80.2999 23.12H83.6799L85.4799 13.64H87.82L88.3 11.08Z" fill="black"/>
<path d="M96.4599 11.1C96.4599 11.1 94.3399 16.44 93.3999 19.36H93.3599C93.2999 18.42 92.5199 11.1 92.5199 11.1H88.9599L90.9999 22.12C91.0399 22.36 91.0199 22.52 90.9199 22.68C90.5199 23.44 89.8599 24.18 89.0799 24.72C88.4399 25.18 87.7199 25.48 87.1599 25.68L88.0999 28.56C88.7799 28.42 90.2199 27.84 91.4199 26.72C92.9599 25.28 94.3999 23.04 95.8599 20L99.9999 11.1H96.4599Z" fill="black"/>
</g>
<defs>
<clipPath id="clip0_17_240">
<rect width="100" height="28.56" fill="white"/>
</clipPath>
</defs>
</svg>
