<?xml version="1.0" encoding="UTF-8"?>
<svg width="32px" height="32px" viewBox="0 0 32 32" version="1.1" xmlns="http://www.w3.org/2000/svg" xmlns:xlink="http://www.w3.org/1999/xlink">
    <!-- Generator: Sketch 47.1 (45422) - http://www.bohemiancoding.com/sketch -->
    <title>acc_icon</title>
    <desc>Created with Sketch.</desc>
    <defs></defs>
    <g id="Symbols" stroke="none" stroke-width="1" fill="none" fill-rule="evenodd">
        <g id="acc_icon" fill-rule="nonzero" fill="#4A4A4A">
            <path d="M16,2 C8.28030459,2 2,8.28030459 2,16 C2,23.7196954 8.28030459,30 16,30 C23.7196954,30 30,23.7196954 30,16 C30,8.28030459 23.7196954,2 16,2 Z M12.6482815,11.9296151 C12.6482815,10.0782054 14.1543527,8.57254579 16.0053509,8.57254579 C17.856349,8.57254579 19.3624203,10.078617 19.3624203,11.9296151 C19.3624203,13.7806133 17.856349,15.2866845 16.0053509,15.2866845 C14.1543527,15.2866845 12.6482815,13.7806133 12.6482815,11.9296151 Z M16,28.3535707 C12.4749949,28.3535707 9.29244701,26.866845 7.0393085,24.4906359 C7.45420868,22.065034 8.82239144,19.9880634 10.7244289,18.6285244 C12.3210537,17.5768677 14.1704054,16.933937 16.0028813,16.9331138 C16.0144063,16.9331138 16.0259313,16.9347602 16.0374563,16.9347602 C17.8777526,16.9421692 19.7283392,17.5966248 21.3204363,18.6630994 C23.1986005,20.02305 24.5494958,22.0839679 24.9615147,24.4889895 C22.7091994,26.8664334 19.5258284,28.3535707 16,28.3535707 Z" id="Shape"></path>
        </g>
    </g>
</svg>