<?xml version="1.0" encoding="UTF-8"?>
<svg width="21px" height="21px" viewBox="0 0 21 21" version="1.1" xmlns="http://www.w3.org/2000/svg" xmlns:xlink="http://www.w3.org/1999/xlink">
    <title>Shape</title>
    <g id="Checkout" stroke="none" stroke-width="1" fill="none" fill-rule="evenodd">
        <g id="Mobile-bottom-sheet" transform="translate(-327.000000, -211.000000)" fill="#000000" fill-rule="nonzero">
            <path d="M339.6,221.5 L347.570455,229.470455 C348.143182,230.043182 348.143182,230.997727 347.570455,231.570455 C346.997727,232.143182 346.043182,232.143182 345.470455,231.570455 L337.5,223.6 L329.529545,231.570455 C328.956818,232.143182 328.002273,232.143182 327.429545,231.570455 C326.856818,230.997727 326.856818,230.043182 327.429545,229.470455 L335.4,221.5 L327.429545,213.529545 C326.856818,212.956818 326.856818,212.002273 327.429545,211.429545 C328.002273,210.856818 328.956818,210.856818 329.529545,211.429545 L337.5,219.4 L345.470455,211.429545 C346.043182,210.856818 346.997727,210.856818 347.570455,211.429545 C348.143182,212.002273 348.143182,212.956818 347.570455,213.529545 L339.6,221.5 Z" id="Shape"></path>
        </g>
    </g>
</svg>