<?xml version="1.0" encoding="utf-8"?>
<!-- Generator: Adobe Illustrator 19.1.0, SVG Export Plug-In . SVG Version: 6.00 Build 0)  -->
<svg version="1.1" id="Layer_1" xmlns="http://www.w3.org/2000/svg" xmlns:xlink="http://www.w3.org/1999/xlink" x="0px" y="0px"
	 viewBox="0 0 377.521 151.446" enable-background="new 0 0 377.521 151.446" xml:space="preserve">
<g>
	<path fill="#E30613" d="M58.037,110.778H53.67L34.047,64.253c-2.717-6.405-5.435-13.373-8.151-20.904h-0.466
		c0.543,10.831,0.816,20.749,0.816,29.754v37.674h-9.491V32.868h13.684l18.342,44.079c2.096,5.047,4.405,11.122,6.93,18.226H56
		c2.795-7.88,5.104-13.955,6.929-18.226L81.27,32.868h13.684v77.909h-9.491V73.104c0-8.812,0.271-18.729,0.815-29.754h-0.466
		c-2.873,7.958-5.59,14.926-8.152,20.904L58.037,110.778z"/>
	<path fill="#E30613" d="M104.215,55.461h9.025l17.181,43.38h0.354l17.635-43.38h9.025l-34.255,82.393h-8.968l11.82-28.183
		L104.215,55.461z"/>
</g>
<g>
	<path d="M207.98,71.012c0-5.242,0-5.914-3.629-8.333l-1.211-0.807c-0.537-0.538-0.537-2.016,0.135-2.419
		c3.092-1.075,10.754-4.57,13.442-6.586c0.538,0,1.21,0.269,1.478,0.941c-0.269,3.092-0.269,5.108-0.269,6.317
		c0,0.807,0.538,1.479,1.478,1.479c5.646-3.495,11.964-6.855,18.818-6.855c11.156,0,15.727,7.662,15.727,16.668v23.119
		c0,9.678,0.268,11.022,5.107,11.694l2.958,0.403c0.94,0.672,0.672,2.957-0.27,3.36c-4.032-0.269-7.93-0.403-12.635-0.403
		c-4.839,0-8.871,0.134-12.501,0.403c-0.94-0.403-1.21-2.688-0.269-3.36l2.554-0.403c4.974-0.807,5.108-2.016,5.108-11.694V74.507
		c0-7.662-3.495-13.307-12.635-13.307c-5.108,0-9.544,2.15-11.426,4.705c-1.748,2.285-2.017,4.167-2.017,8.064v20.565
		c0,9.678,0.269,10.888,5.108,11.694l2.419,0.403c0.94,0.672,0.673,2.957-0.269,3.36c-3.629-0.269-7.527-0.403-12.232-0.403
		c-4.838,0-8.871,0.134-12.635,0.403c-0.94-0.403-1.209-2.688-0.268-3.36l2.823-0.403c4.973-0.672,5.107-2.016,5.107-11.694V71.012z
		"/>
	<path d="M290.379,62.275c-2.285,0-2.285,0.269-2.285,3.898v28.361c0,9.678,0.269,11.291,5.107,11.694l4.839,0.403
		c0.94,0.672,0.673,2.957-0.269,3.36c-6.049-0.269-9.947-0.403-14.651-0.403c-4.839,0-8.871,0.134-12.903,0.403
		c-0.941-0.403-1.21-2.688-0.27-3.36l3.092-0.403c4.973-0.672,5.107-2.016,5.107-11.694V66.173c0-3.629,0-3.898-2.688-3.898h-4.705
		c-0.807-0.538-0.941-1.748-0.403-2.554l5.78-2.823c1.075-0.538,2.016-1.344,2.016-2.688c0-7.796,0.941-16.13,4.167-23.657
		c3.36-7.662,10.888-17.071,24.194-17.071c7.125,0,13.174,3.226,13.174,8.065c0,2.688-2.555,4.839-5.108,4.839
		c-1.478,0-2.285-0.538-3.226-1.613c-2.555-2.958-6.318-5.915-10.754-5.915c-4.166,0-7.527,2.554-9.543,7.393
		c-2.42,6.183-2.957,15.995-2.957,22.716v3.898c0,3.629,0,3.764,2.285,3.764h15.322c1.479,1.344,0.539,5.108-0.94,5.646H290.379z"/>
	<path d="M364.98,82.571c0,16.802-11.56,28.899-28.361,28.899c-15.459,0-27.556-10.888-27.556-27.689
		c0-16.936,12.77-29.034,28.63-29.034C352.748,54.747,364.98,66.038,364.98,82.571z M336.08,58.78
		c-8.871,0-15.457,8.468-15.457,23.253c0,12.232,5.512,25.405,17.34,25.405c11.828,0,15.457-12.366,15.457-22.716
		C353.42,73.297,348.849,58.78,336.08,58.78z"/>
</g>
<path d="M181.89,26.804c0.795,4.159-1.954,8.18-6.146,8.983l0,0c-4.187,0.804-8.23-1.916-9.025-6.073l-0.387-2.007
	c-0.795-4.161,1.953-8.181,6.143-8.985l0,0c4.189-0.803,8.233,1.917,9.031,6.075L181.89,26.804z"/>
<path d="M130.017,42.641c0,0,53.91,8.68,85.534-26.142c0,0-3.286,17.808-33.626,26.874C157.342,50.72,130.017,42.641,130.017,42.641
	z"/>
<path d="M170.588,61.056c0,0-1.004-11.471,6.039-12.274c0,0,7.644-3.421,10.865,7.444c0,0,5.03,15.09-3.221,59.358l-7.043,27.97
	c0,0,1.209-27.163,0-35.013C177.228,108.541,170.591,68.098,170.588,61.056z"/>
</svg>
