<?xml version="1.0" encoding="UTF-8"?>
<svg
  id="hitpay"
  fill="currentColor"
  width="20px" height="20px" viewBox="0 0 20 20" version="1.1" xmlns="http://www.w3.org/2000/svg" xmlns:xlink="http://www.w3.org/1999/xlink">
  <g>
    <g transform="translate(6.000000, 3.000000)">
      <path d="M3.98924795,0.986726282 C3.43615194,0.990505815 2.99246849,1.44544812 2.99892091,1.99854488 L2.99892091,3.01036348 L2.00274428,3.01036348 C1.44737678,3.00824694 0.996627486,3.45899396 0.99873911,4.01435844 L0.99873911,7.01077167 C0.996627486,7.56613615 1.44737678,8.01688317 2.00274428,8.01476663 L5.00108771,8.01476663 L5.00108771,9.01097576 C3.98665557,8.9807395 3.03578193,9.01097576 2.00274428,9.01097576 C0.662074623,9.0034167 0.662074623,11.0190413 2.00274428,11.0131074 L2.99893678,11.0131074 L2.99893678,12.0014551 C2.99930339,13.3358568 5.00145433,13.3358568 5.00108771,12.0014551 L5.00108771,11.0131074 L6.00509326,11.0131074 C6.55513351,11.0109153 7.00017684,10.5649683 7.00128576,10.0149329 L7.00128576,7.01077167 C6.99909892,6.46149223 6.55436967,6.01675467 6.00509326,6.01456254 L2.99893678,6.01456254 L2.99893678,5.01052978 L6.00509326,5.01052978 C7.36975992,5.04076604 7.36975992,2.97876659 6.00509326,3.01036348 L5.00108771,3.01036348 L5.00108771,1.99854488 C5.0076641,1.43701976 4.55077647,0.980149896 3.98926874,0.986726282 L3.98924795,0.986726282 Z" id="Shape"></path>
    </g>
    <path d="M17.778041,3.7305088 L17.7777778,1.85185184 C17.7777778,1.27429917 18.2184356,0.799667618 18.7818815,0.745827099 L18.8888889,0.740740729 C19.4664416,0.740740729 19.9410731,1.18139858 19.9949136,1.74484443 L20,1.85185184 L20,6.29629628 C20,6.87384895 19.5593421,7.3484805 18.9958963,7.40232102 L18.8888889,7.40740739 L14.4444444,7.40740739 C13.8307947,7.40740739 13.3333333,6.90994599 13.3333333,6.29629628 C13.3333333,5.71874362 13.7739912,5.24411206 14.337437,5.19027154 L14.4444444,5.18518517 L16.0954058,5.18504873 C13.7643416,2.23527762 9.39850875,1.30792458 6.07412356,3.22725932 C2.43580786,5.32784184 1.12667675,10.2135856 3.22725934,13.8519013 C5.32784186,17.490217 10.2135856,18.7993481 13.8519013,16.6987655 C14.3833376,16.3919407 15.0628824,16.5740242 15.3697073,17.1054604 C15.6765322,17.6368967 15.4944487,18.3164416 14.9630124,18.6232664 C10.2618242,21.3374987 4.01699067,19.6642006 1.30275838,14.9630124 C-1.41147384,10.2618242 0.261824232,4.01699065 4.96301245,1.30275836 C9.22678867,-1.15893394 14.7603233,-0.0115698634 17.778041,3.7305088 Z" id="Shape"></path>
  </g>
</svg>