<?xml version="1.0" encoding="UTF-8"?>
<svg
  id="hitpay"
  fill="currentColor"
  width="20px"
  height="20px"
  viewBox="0 0 20 20"
  version="1.1"
  xmlns="http://www.w3.org/2000/svg"
  xmlns:xlink="http://www.w3.org/1999/xlink">
  <g>
      <path d="M10.0048952,0 C4.49335252,0 0,4.48551116 0,9.99705196 C0,15.5086306 4.49335252,20 10.0048952,20 C15.5164394,20 20.0000249,15.5086306 20.0000249,9.99705196 C20.0000249,4.48551116 15.5164394,0 10.0048952,0 Z M10.0048952,2.00020409 C14.4354516,2.00020409 17.9998269,5.5664952 17.9998269,9.99705196 C17.9998269,14.4276087 14.4354516,17.9998337 10.0048952,17.9998337 C5.57433958,17.9998337 2.00215089,14.4276087 2.00215089,9.99705196 C2.00215089,5.5664952 5.57433958,2.00020409 10.0048952,2.00020409 Z M9.98924795,3.98672628 C9.43615194,3.99050581 8.99246849,4.44544812 8.99892091,4.99854488 L8.99892091,6.01036348 L8.00274428,6.01036348 C7.44737678,6.00824694 6.99662749,6.45899396 6.99873911,7.01435844 L6.99873911,10.0107717 C6.99662749,10.5661361 7.44737678,11.0168832 8.00274428,11.0147666 L11.0010877,11.0147666 L11.0010877,12.0109758 C9.98665557,11.9807395 9.03578193,12.0109758 8.00274428,12.0109758 C6.66207462,12.0034167 6.66207462,14.0190413 8.00274428,14.0131074 L8.99893678,14.0131074 L8.99893678,15.0014551 C8.99930339,16.3358568 11.0014543,16.3358568 11.0010877,15.0014551 L11.0010877,14.0131074 L12.0050933,14.0131074 C12.5551335,14.0109153 13.0001768,13.5649683 13.0012858,13.0149329 L13.0012858,10.0107717 C12.9990989,9.46149223 12.5543697,9.01675467 12.0050933,9.01456254 L8.99893678,9.01456254 L8.99893678,8.01052978 L12.0050933,8.01052978 C13.3697599,8.04076604 13.3697599,5.97876659 12.0050933,6.01036348 L11.0010877,6.01036348 L11.0010877,4.99854488 C11.0076641,4.43701976 10.5507765,3.9801499 9.98926874,3.98672628 L9.98924795,3.98672628 Z" id="Shape"></path>
  </g>
</svg>