<?xml version="1.0" encoding="UTF-8"?>
<svg
  id="hitpay"
  fill="currentColor"
  width="20px" height="20px" viewBox="0 0 20 20" version="1.1" xmlns="http://www.w3.org/2000/svg" xmlns:xlink="http://www.w3.org/1999/xlink">
  <g>
    <path d="M0.912405159,2.00000662 C0.670134202,1.99908285 0.43751985,2.09491251 0.266210319,2.2662182 C0.0949007892,2.43752388 -0.000925992661,2.67012798 6.74591647e-06,2.91238455 L6.74591647e-06,17.4513334 C-0.000907629595,17.6935781 0.0949272597,17.9261645 0.266234787,18.0974553 C0.437542313,18.2687461 0.670146159,18.3645663 0.912405159,18.3636427 L19.087595,18.3636427 C19.329854,18.3645663 19.5624578,18.268746 19.7337653,18.0974552 C19.9050728,17.9261644 20.0009076,17.6935781 19.9999933,17.4513334 L19.9999933,2.91238455 C20.000926,2.67012802 19.9050992,2.43752395 19.7337898,2.26621827 C19.5624803,2.09491259 19.329866,1.9990829 19.087595,2.00000662 L0.912405159,2.00000662 Z M3.26795533,3.81940243 L16.7551215,3.81940243 L10.0044377,9.87035722 L3.26795533,3.81940243 Z M1.81770325,4.96071665 L9.39380523,11.7678175 C9.73918448,12.0777485 10.2625909,12.0777485 10.6079702,11.7678175 L18.1822969,4.98201944 L18.1822969,16.5442812 L1.81770325,16.5442812 L1.81770325,4.96071665 Z" id="Shape"></path>
  </g>
</svg>