<?xml version="1.0" encoding="UTF-8"?>
<svg
  id="hitpay"
  fill="currentColor"
  width="20px"
  height="20px" viewBox="0 0 20 20" version="1.1" xmlns="http://www.w3.org/2000/svg" xmlns:xlink="http://www.w3.org/1999/xlink">
  <g>
    <path d="M10,0 C7.8027055,0 6.0000004,1.8026961 6,4 L1,4 C0.447738124,4.00005522 5.52179053e-05,4.44773812 2.22044605e-16,5 L2.22044605e-16,9.173828 C0.000201504754,9.49884868 0.15833403,9.80350065 0.424016173,9.99072106 C0.689698317,10.1779415 1.02979011,10.2243773 1.3359375,10.115234 C1.549361,10.039266 1.7734597,10.000756 2,10 C3.1164138,10 4,10.883565 4,12 C4,13.115754 3.1174349,13.99898 2.0019531,14 C1.7753379,13.998904 1.5512375,13.959159 1.3378906,13.882812 C1.03150923,13.7728686 0.690789591,13.8189111 0.424578305,14.0062307 C0.158367018,14.1935504 -2.58657885e-05,14.4987085 0,14.824219 L2.22044605e-16,19 C5.52179053e-05,19.5522619 0.447738124,19.9999448 1,20 L7.1738281,20 C7.49884889,19.9997985 7.80350095,19.8416659 7.99072136,19.5759836 C8.17794177,19.3103014 8.2243775,18.9702094 8.115234,18.664062 C8.03902,18.450141 8.000484,18.225234 8,17.998047 C8.001041,16.882557 8.884244,16 10,16 C11.115756,16 11.998959,16.882557 12,17.998047 C11.998882,18.224819 11.959253,18.448755 11.882812,18.662109 C11.7728684,18.9684904 11.8189109,19.3092102 12.0062305,19.5754216 C12.1935502,19.841633 12.4987084,20.0000259 12.824219,20 L19,20 C19.5522619,19.9999448 19.9999448,19.5522619 20,19 L20,14.826172 C19.9997986,14.5011512 19.841666,14.1964991 19.5759837,14.0092787 C19.3103014,13.8220582 18.9702094,13.7756225 18.664062,13.884766 C18.45064,13.960734 18.22654,13.999244 18,14 C16.883586,14 16,13.116397 16,12 C16,10.884246 16.882565,10.001058 17.998047,10 C18.22466,10.001134 18.448763,10.040841 18.662109,10.117188 C18.9684904,10.2271316 19.3092102,10.1810891 19.5754216,9.99376949 C19.841633,9.80644984 20.0000259,9.50129161 20,9.175781 L20,5 C19.9999448,4.44773812 19.5522619,4.00005522 19,4 L14,4 C14,1.8026961 12.197294,0 10,0 Z M10,2 C11.115756,2 11.998959,2.8825949 12,3.9980469 C11.998882,4.2248185 11.959253,4.4487928 11.882812,4.6621094 C11.7728686,4.96849077 11.8189111,5.30921041 12.0062307,5.5754217 C12.1935504,5.84163298 12.4987085,6.00002587 12.824219,6 L18,6 L18,8 C15.802706,8 14,9.802696 14,12 C14,14.197266 15.802706,16 18,16 L18,18 L14,18 C14,15.802696 12.197294,14 10,14 C7.8027059,14 6.0000004,15.802696 6,18 L2,18 L2,16 C4.1972941,16 6,14.197266 6,12 C6,9.802696 4.1972941,8 2,8 L2,6 L7.1738281,6 C7.49884876,5.99979846 7.8035007,5.84166592 7.99072108,5.57598379 C8.17794147,5.31030165 8.2243773,4.97020987 8.115234,4.6640625 C8.03902,4.4501412 8.000484,4.2252721 8,3.9980469 C8.001041,2.8825949 8.884244,2 10,2 Z" id="Shape"></path>
  </g>
</svg>