<?xml version="1.0" encoding="UTF-8"?>
<svg
  id="hitpay"
  fill="currentColor"
  width="20px" height="20px" viewBox="0 0 20 20" version="1.1" xmlns="http://www.w3.org/2000/svg" xmlns:xlink="http://www.w3.org/1999/xlink">
  <g>
      <path d="M2.72727273,0 C1.23208855,0 0,1.23209164 0,2.72727273 L0,17.2727273 C0,18.7679082 1.23208855,20 2.72727273,20 L15.4545455,20 C15.9566017,19.9999498 16.3635862,19.5929653 16.3636364,19.0909091 L16.3636364,0.909090909 C16.3635862,0.407034658 15.9566017,5.01980958e-05 15.4545455,0 L2.72727273,0 Z M2.72727273,1.81818182 L14.5454545,1.81818182 L14.5454545,18.1818182 L2.72727273,18.1818182 C2.20791173,18.1818182 1.81818182,17.7920691 1.81818182,17.2727273 L1.81818182,2.72727273 C1.81818182,2.20793127 2.20791173,1.81818182 2.72727273,1.81818182 Z M4.54723009,3.63636364 C4.3049003,3.63543963 4.07222898,3.73129596 3.9008747,3.90265024 C3.72952041,4.07400453 3.63366408,4.30667584 3.63458809,4.54900564 L3.63458809,8.17826709 C3.63366408,8.42059688 3.72952041,8.6532682 3.9008747,8.82462248 C4.07222898,8.99597677 4.3049003,9.0918331 4.54723009,9.09090909 L11.8146309,9.09090909 C12.0569607,9.09183305 12.2896319,8.9959767 12.4609862,8.82462242 C12.6323404,8.65326814 12.7281967,8.42059685 12.7272727,8.17826709 L12.7272727,4.54900564 C12.7281967,4.30667588 12.6323404,4.07400459 12.4609862,3.90265031 C12.2896319,3.73129603 12.0569607,3.63543968 11.8146309,3.63636364 L4.54723009,3.63636364 Z M5.45276991,5.45454545 L10.9090909,5.45454545 L10.9090909,7.27272727 L5.45276991,7.27272727 L5.45276991,5.45454545 Z M6.274858,10.9090909 C6.27367298,10.9096801 6.27248925,10.910272 6.27130682,10.9108664 C5.7776691,10.9474288 5.40366267,11.3716474 5.42924799,11.8659757 C5.4548333,12.3603039 5.87063714,12.7436437 6.36541182,12.7290482 L10.0035509,12.7290482 C10.3332032,12.7364493 10.6410317,12.5648145 10.8080314,12.2804969 C10.9750312,11.9961794 10.9750312,11.6437352 10.8080314,11.3594176 C10.6410317,11.0751 10.3332032,10.9034652 10.0035509,10.9108664 L6.36541182,10.9108664 C6.33527545,10.9087705 6.30505336,10.908178 6.274858,10.9090909 L6.274858,10.9090909 Z M4.453125,14.54723 C3.95915935,14.5833867 3.58469495,15.0077542 3.61029566,15.5023792 C3.63589636,15.9970043 4.05217114,16.3804449 4.54723009,16.3654118 L11.8146309,16.3654118 C12.3090602,16.3547356 12.7043038,15.9508655 12.7043038,15.4563209 C12.7043038,14.9617764 12.3090602,14.5579062 11.8146309,14.54723 L4.54723009,14.54723 C4.51588276,14.5456055 4.48447233,14.5456055 4.453125,14.54723 Z" id="Shape"></path>
  </g>
</svg>