<?xml version="1.0" encoding="UTF-8"?>
<svg
  id="hitpay"
  fill="currentColor"
  width="20px" height="20px" viewBox="0 0 20 20" version="1.1" xmlns="http://www.w3.org/2000/svg" xmlns:xlink="http://www.w3.org/1999/xlink">
  <g>
    <path d="M0.900219815,0.00114547539 C0.388777644,0.0524028453 -0.000500513842,0.483155726 4.83032754e-07,0.997276553 L4.83032754e-07,11.0015983 C0.00219676119,11.5508345 0.446794612,11.9955336 0.995904789,11.9977294 L14.9971472,11.9977294 C15.4064852,11.9981456 15.7747378,11.7489687 15.9266582,11.368779 L19.9278502,1.37428397 C20.0518182,1.06579564 20.014418,0.715855957 19.8280564,0.440549638 C19.6416947,0.165243318 19.3307379,0.000565908448 18.9983389,0.00114547539 L0.995904789,0.00114547539 C0.964028048,-0.00038182513 0.932096481,-0.00038182513 0.900219739,0.00114547539 L0.900219815,0.00114547539 Z M2.00157304,2.00123124 L17.5220576,2.00123124 L14.3195422,9.99764361 L2.00157304,9.99764361 L2.00157304,2.00123124 Z M2.99747734,13.9978151 C1.35278269,13.9978151 4.83032756e-07,15.3567804 4.83032756e-07,17.0018556 C4.83032756e-07,18.6469308 1.35278269,20 2.99747734,20 C4.64217192,20 6.00081217,18.6469308 6.00081217,17.0018556 C6.00081217,15.3567804 4.64217192,13.9978151 2.99747734,13.9978151 Z M12.9975275,13.9978151 C11.3528337,13.9978151 10.0020038,15.3567804 10.0020038,17.0018556 C10.0020038,18.6469308 11.3528337,20 12.9975275,20 C14.6422217,20 15.9930515,18.6469308 15.9930515,17.0018556 C15.9930515,15.3567804 14.6422217,13.9978151 12.9975275,13.9978151 Z M2.99747734,15.9978631 C3.56150198,15.9978631 4.00119241,16.437724 4.00119241,17.0018556 C4.00119241,17.5659872 3.56150198,17.999952 2.99747734,17.999952 C2.43345308,17.999952 2.00157304,17.5659872 2.00157304,17.0018556 C2.00157304,16.437724 2.43345308,15.9978631 2.99747734,15.9978631 Z M12.9975275,15.9978631 C13.5615525,15.9978631 13.9934322,16.437724 13.9934322,17.0018556 C13.9934322,17.5659872 13.5615525,17.999952 12.9975275,17.999952 C12.4335028,17.999952 12.0016232,17.5659872 12.0016232,17.0018556 C12.0016232,16.437724 12.4335028,15.9978631 12.9975275,15.9978631 Z" id="Shape"></path>
  </g>
</svg>