<?xml version="1.0" encoding="UTF-8"?>
<svg
  id="hitpay"
  fill="currentColor"
  width="20px"
  height="20px"
  viewBox="0 0 20 20"
  version="1.1"
  xmlns="http://www.w3.org/2000/svg"
  xmlns:xlink="http://www.w3.org/1999/xlink">
  <g>
    <path d="M2.496948,0 C1.1262508,0 0,1.12625097 0,2.49694791 L0,6.66232598 C0,8.03302293 1.1262508,9.16741248 2.496948,9.16741248 L6.66883711,9.16741248 C8.03953409,9.16741248 9.1657851,8.03302293 9.1657851,6.66232598 L9.1657851,2.49694791 C9.1657851,1.12625097 8.03953409,1.39870611e-15 6.66883711,1.39870611e-15 L2.496948,0 Z M13.3311633,0 C11.9604657,0 10.834215,1.12625097 10.834215,2.49694791 L10.834215,6.66232598 C10.834215,8.03302293 11.9604657,9.16741248 13.3311633,9.16741248 L17.5030517,9.16741248 C18.8737493,9.16741248 20,8.03302293 20,6.66232598 L20,2.49694791 C20,1.12625097 18.8737493,1.39870611e-15 17.5030517,1.39870611e-15 L13.3311633,0 Z M2.496948,1.66680213 L6.66883711,1.66680213 C7.14495679,1.66680213 7.49898261,2.02082794 7.49898261,2.49694791 L7.49898261,6.66232598 C7.49898261,7.13844565 7.14495679,7.49898264 6.66883711,7.49898264 L2.496948,7.49898264 C2.02082826,7.49898264 1.66680228,7.13844565 1.66680228,6.66232598 L1.66680228,2.49694791 C1.66680228,2.02082794 2.02082826,1.66680213 2.496948,1.66680213 Z M13.3311633,1.66680213 L17.5030517,1.66680213 C17.9791714,1.66680213 18.3331978,2.02082794 18.3331978,2.49694791 L18.3331978,6.66232598 C18.3331978,7.13844565 17.9791714,7.49898264 17.5030517,7.49898264 L13.3311633,7.49898264 C12.8550436,7.49898264 12.5010175,7.13844565 12.5010175,6.66232598 L12.5010175,2.49694791 C12.5010175,2.02082794 12.8550436,1.66680213 13.3311633,1.66680213 Z M2.496948,10.8342149 C1.1262508,10.8342149 0,11.9604656 0,13.3311628 L0,17.5030515 C0,18.873749 1.1262508,20 2.496948,20 L6.66883711,20 C8.03953409,20 9.1657851,18.873749 9.1657851,17.5030515 L9.1657851,13.3311628 C9.1657851,11.9604656 8.03953409,10.8342149 6.66883711,10.8342149 L2.496948,10.8342149 Z M13.3311633,10.8342149 C11.9604657,10.8342149 10.834215,11.9604656 10.834215,13.3311628 L10.834215,17.5030515 C10.834215,18.873749 11.9604657,20 13.3311633,20 L17.5030517,20 C18.8737493,20 20,18.873749 20,17.5030515 L20,13.3311628 C20,11.9604656 18.8737493,10.8342149 17.5030517,10.8342149 L13.3311633,10.8342149 Z M2.496948,12.501017 L6.66883711,12.501017 C7.14495679,12.501017 7.49898261,12.8550432 7.49898261,13.3311628 L7.49898261,17.5030515 C7.49898261,17.9791711 7.14495679,18.3331976 6.66883711,18.3331976 L2.496948,18.3331976 C2.02082826,18.3331976 1.66680228,17.9791711 1.66680228,17.5030515 L1.66680228,13.3311628 C1.66680228,12.8550432 2.02082826,12.501017 2.496948,12.501017 Z M13.3311633,12.501017 L17.5030517,12.501017 C17.9791714,12.501017 18.3331978,12.8550432 18.3331978,13.3311628 L18.3331978,17.5030515 C18.3331978,17.9791711 17.9791714,18.3331976 17.5030517,18.3331976 L13.3311633,18.3331976 C12.8550436,18.3331976 12.5010175,17.9791711 12.5010175,17.5030515 L12.5010175,13.3311628 C12.5010175,12.8550432 12.8550436,12.501017 13.3311633,12.501017 Z" id="Shape"></path>
  </g>
</svg>