<?xml version="1.0" encoding="UTF-8"?>
<svg id="hitpay"
     fill="currentColor"
     width="20px" height="20px" viewBox="0 0 20 20" version="1.1" xmlns="http://www.w3.org/2000/svg" xmlns:xlink="http://www.w3.org/1999/xlink">
    <!-- Generator: Sketch 47.1 (45422) - http://www.bohemiancoding.com/sketch -->
            <g>
                <path d="M16.662961,0.000267529252 C15.8039758,0.0013635921 14.944218,0.327952526 14.294949,0.976972914 L10.9793399,4.29180713 C9.92686335,5.34474557 9.74091138,6.94254064 10.3931988,8.20441134 C10.3580793,8.231402 10.3247915,8.26069481 10.2935553,8.29209637 L8.29285853,10.2943008 C8.26212203,10.3249109 8.23340529,10.3574833 8.2068894,10.3918126 C6.94580409,9.73360799 5.34780946,9.91710403 4.29342005,10.97197 L0.97390399,14.2946279 C-0.324634663,15.5937269 -0.324634663,17.7265896 0.97390399,19.0256887 C2.27244268,20.3247499 4.40360196,20.3247499 5.70211367,19.0256887 L9.02358284,15.7030308 C10.0748432,14.6513396 10.258693,13.0600831 9.60777149,11.8001778 C9.64363064,11.7725222 9.67757421,11.7424691 9.70936895,11.7102251 L11.7120194,9.70998595 C11.7434301,9.679442 11.7727998,9.64686792 11.7999388,9.61247415 C13.060908,10.2636489 14.6576773,10.0756552 15.7095039,9.02453092 L19.0231581,5.70969671 C20.3216966,4.41063546 20.3275526,2.27187668 19.0290542,0.972815434 C18.379759,0.323228117 17.5219413,-0.00113089576 16.6629561,2.96235714e-06 L16.662961,0.000267529252 Z M16.6590681,1.98100428 C17.0018183,1.98100428 17.3447329,2.11744521 17.6144789,2.38726564 C18.1539708,2.92698211 18.1481148,3.75405602 17.6085828,4.29373469 L14.2949282,7.61057205 C13.7554094,8.15032631 12.9294595,8.15561765 12.3899675,7.61435158 C11.8504756,7.07463511 11.8504487,6.24170294 12.3899675,5.70198647 L15.7036222,2.38711446 C15.973367,2.11725623 16.3162843,1.9808531 16.6590329,1.9808531 L16.6590681,1.98100428 Z M6.65753124,11.9841652 C6.997666,11.9841652 7.33928838,12.1206061 7.60903436,12.3904265 C8.14743215,12.9301808 8.1520496,13.7556673 7.61292728,14.294968 L4.29341174,17.6156983 C3.7539194,18.1554148 2.92794307,18.1500478 2.38845111,17.6119188 C1.84895914,17.0722023 1.84895914,16.2509867 2.38845111,15.7112702 L5.70796286,12.3905399 C5.97770771,12.1206817 6.31737683,11.9842408 6.65751272,11.9842786 L6.65753124,11.9841652 Z" id="Shape"></path>
            </g>
</svg>
