<?xml version="1.0" encoding="UTF-8"?>
<svg 
  id="hitpay"
  fill="currentColor"
  width="20px" height="20px" viewBox="0 0 20 20" version="1.1" xmlns="http://www.w3.org/2000/svg" xmlns:xlink="http://www.w3.org/1999/xlink">
  <g id="Group">
      <path d="M19.375,0.07359375 L15.2014062,0.07359375 L4.79875,0.07359375 L0.625,0.07359375 C0.27984375,0.07359375 0,0.3534375 0,0.69859375 L0,4.80640625 L0,8.12125 L0,12.2221875 C0,12.5673437 0.27984375,12.8471875 0.625,12.8471875 L4.79875,12.8471875 L6.875,12.8471875 C7.22015625,12.8471875 7.5,12.5673437 7.5,12.2221875 C7.5,11.8770312 7.22015625,11.5971875 6.875,11.5971875 L5.37671875,11.5971875 C5.091875,9.48828125 3.3928125,7.81734375 1.25,7.54109375 L1.25,5.3865625 C3.393125,5.10984375 5.09234375,3.43609375 5.376875,1.32359375 L14.6232812,1.32359375 C14.9078125,3.43609375 16.6070312,5.1096875 18.75,5.3865625 L18.75,7.54109375 C16.6073438,7.8175 14.9082813,9.48828125 14.6234375,11.5971875 L13.125,11.5971875 C12.7798437,11.5971875 12.5,11.8770312 12.5,12.2221875 C12.5,12.5673437 12.7798437,12.8471875 13.125,12.8471875 L15.2014062,12.8471875 L19.375,12.8471875 C19.7201563,12.8471875 20,12.5673437 20,12.2221875 L20,8.12125 L20,4.80640625 L20,0.69859375 C20,0.3534375 19.7201563,0.07359375 19.375,0.07359375 Z M4.11625,11.5971875 L1.25,11.5971875 L1.25,8.8003125 C2.7025,9.0540625 3.851875,10.17625 4.11625,11.5971875 Z M1.25,4.1275 L1.25,1.32359375 L4.1165625,1.32359375 C3.85234375,2.7478125 2.7028125,3.87296875 1.25,4.1275 Z M15.88375,1.32359375 L18.75,1.32359375 L18.75,4.12734375 C17.2970312,3.87296875 16.1478125,2.7478125 15.88375,1.32359375 Z M18.75,8.8003125 L18.75,11.5971875 L15.88375,11.5971875 C16.1484375,10.17625 17.2976562,9.0540625 18.75,8.8003125 Z" id="Shape"></path>
      <path d="M12.7375,6.46046875 C12.7375,4.9484375 11.5095313,3.71828125 10,3.71828125 C8.49046875,3.71828125 7.26265625,4.9484375 7.26265625,6.46046875 C7.26265625,7.9725 8.490625,9.2025 10,9.2025 C11.509375,9.2025 12.7375,7.9725 12.7375,6.46046875 Z M10,7.9525 C9.18,7.9525 8.51265625,7.28328125 8.51265625,6.46046875 C8.51265625,5.63765625 9.18,4.96828125 10,4.96828125 C10.8203125,4.96828125 11.4875,5.63765625 11.4875,6.46046875 C11.4875,7.28328125 10.8203125,7.9525 10,7.9525 Z" id="Shape"></path>
      <path d="M11.9509375,16.5426563 L10,18.43125 L8.04890625,16.5425 C7.80140625,16.3029688 7.405625,16.3090625 7.16515625,16.5565625 C6.92515625,16.8046875 6.9315625,17.2004688 7.17953125,17.4403125 L9.5653125,19.7501563 C9.68671875,19.8676563 9.84328125,19.92625 10.0001562,19.92625 C10.1570312,19.92625 10.3135937,19.8676563 10.435,19.7501563 L12.8209375,17.4403125 C13.06875,17.2004688 13.0751562,16.8046875 12.835,16.5565625 C12.5948437,16.3090625 12.1990625,16.3026563 11.9509375,16.5426563 Z" id="Shape"></path>
      <path d="M9.375,12.2221875 L9.375,16.1764062 C9.375,16.5215625 9.65484375,16.8014062 10,16.8014062 C10.3451563,16.8014062 10.625,16.5215625 10.625,16.1764062 L10.625,12.2221875 C10.625,11.8770312 10.3451563,11.5971875 10,11.5971875 C9.65484375,11.5971875 9.375,11.8770313 9.375,12.2221875 Z" id="Shape"></path>
  </g>
</svg>