<?xml version="1.0" encoding="UTF-8"?>
<svg
  id="hitpay"
  fill="currentColor"
  width="20px" height="20px" viewBox="0 0 20 20" version="1.1" xmlns="http://www.w3.org/2000/svg" xmlns:xlink="http://www.w3.org/1999/xlink">
    <g stroke-width="1" fill-rule="evenodd">
        <g id="Artboard-5" transform="translate(-22.000000, -20.000000)" fill-rule="nonzero">
            <path d="M26.2296612,20.563235 C25.6462206,20.9851877 25.255826,21.7038606 25.255826,22.5345566 C25.255826,23.1414855 25.4379489,23.7040658 25.750011,24.1785066 L23.6279224,24.1785066 C22.7337266,24.2601111 22.0070676,25.2883416 22.0000188,26.0407121 C22.0000676,26.4396183 21.9999583,26.8272454 22.0000188,28.3611957 C22.0000188,28.8237761 22.4481853,29.0595198 22.9302494,29.0595198 C22.9302471,32.5419847 22.9302564,36.1336285 22.9302494,39.3016452 C22.9302866,39.6672956 23.2626325,39.9999228 23.6279224,39.9999693 L40.3720757,39.99276 C40.737354,39.9927135 41.0697022,39.660063 41.0697487,39.2944359 C41.0697487,35.7272339 41.0697487,32.995007 41.0697487,29.0595663 C41.7674217,29.0565431 41.9873282,28.7344972 41.9999793,28.3612422 C41.9999793,26.834943 42.0000258,27.3368722 41.9999793,26.0407586 C41.9234446,25.1304349 41.0693068,24.1885764 40.3720757,24.1712974 L38.2572522,24.1712974 C38.5659562,23.6985542 38.7441698,23.1379507 38.7441698,22.5346031 C38.7441698,21.7039071 38.3537752,20.9852342 37.7703346,20.5632816 C36.6730555,19.8828411 35.5136951,19.8235389 34.5363296,20.4323516 C33.5824572,21.0713503 32.6895428,21.8146046 31.9999977,22.6509982 C31.2221853,21.7748837 30.4112823,21.0253039 29.4636657,20.4323516 C28.472824,19.7997948 27.2103871,19.8764923 26.2296612,20.563235 L26.2296612,20.563235 Z M28.7296561,21.6179771 C29.6636048,22.3229989 30.7787188,23.0459276 31.324127,24.1566927 C30.3318662,24.1543672 29.3315106,24.1634369 28.286343,24.1566927 C27.3259892,23.9460885 26.6739022,23.2969968 26.6511836,22.5345566 C26.6511836,22.0819063 26.785381,21.8774881 27.0436247,21.6907443 C27.6882094,21.3896054 28.2078595,21.3013731 28.7296561,21.6179771 Z M36.9563828,21.6907443 C37.2146264,21.8774881 37.3488238,22.0819063 37.3488238,22.5345566 C37.3488238,23.439671 36.6307765,24.1566927 35.7209202,24.1566927 C34.6625154,24.163902 33.5801828,24.1543672 32.67588,24.1566927 C33.4284529,23.099067 34.2057187,22.2851617 35.2703514,21.6179771 C35.766041,21.2616755 36.4342071,21.327187 36.9563828,21.6907443 Z M40.2703317,25.5678991 C40.4132152,25.7008756 40.5236335,25.9111775 40.6046334,26.1134794 C40.6046566,26.9059196 40.6046566,27.2287562 40.6046334,27.6628715 C38.3565729,27.6628715 36.1085171,27.6628715 33.8604589,27.6628715 L33.8604589,25.5751549 L40.2703317,25.5678991 Z M23.7296664,25.5751084 L30.1395364,25.5751084 L30.1395364,27.662825 C27.8990159,27.6791041 25.6199671,27.6484065 23.3953764,27.6484065 C23.3953927,27.0287566 23.395402,26.3777347 23.3953764,26.1135492 C23.4637576,25.8984798 23.6068457,25.7223872 23.7296664,25.5751084 Z M24.3255954,29.0594733 L30.1395364,29.0594733 L30.1395364,30.6452677 C29.4344658,31.2007782 28.9767486,32.0552648 28.9767486,33.0166582 C28.9767486,33.9780748 29.4344658,34.8398404 30.1395364,35.3953509 L30.1395364,38.6032745 L24.3255954,38.6032745 C24.3256024,35.2208629 24.3255954,31.9276371 24.3255954,29.0594733 L24.3255954,29.0594733 Z M33.8604589,29.0594733 L39.6744027,29.0594733 C39.6743795,32.7286587 39.6744027,35.3844905 39.6744027,38.5960187 L33.8604589,38.603228 L33.8604589,35.3953044 C34.5655296,34.8397939 35.0232472,33.9780283 35.0232472,33.0166116 C35.0232472,32.0552183 34.5655296,31.2007317 33.8604589,30.6452212 L33.8604589,29.0594733 Z" id="Shape"></path>
        </g>
    </g>
</svg>