<?xml version="1.0" encoding="UTF-8"?>
<svg
  id="hitpay"
  fill="currentColor"
  width="20px" height="20px" viewBox="0 0 20 20" version="1.1" xmlns="http://www.w3.org/2000/svg" xmlns:xlink="http://www.w3.org/1999/xlink">
  <g>
    <path d="M7.85603003,0.00114545377 C7.34439559,0.0524029431 6.95496927,0.483154696 6.95546466,0.997277694 L6.95546466,3.78063505 C6.63376262,3.93257205 6.32664012,4.10643031 6.03145751,4.30413739 L3.53683337,2.89584769 C3.06293012,2.62868453 2.46236728,2.78920612 2.18500867,3.25717051 L0.139690364,6.72605855 C0.00509461171,6.95676925 -0.0316163687,7.23172362 0.0377372458,7.48965721 C0.10709086,7.7475908 0.276746691,7.9670727 0.508902568,8.09919864 L2.90780512,9.45865685 C2.89298937,9.63894031 2.85751472,9.81431038 2.85701583,9.99580329 C2.8570063,9.99832296 2.8570063,10.0008427 2.85701583,10.0033623 C2.85783825,10.1847797 2.89269456,10.3616615 2.90780512,10.5424741 L0.508902568,11.8940709 C0.274607623,12.0261932 0.103406,12.2470965 0.0339370797,12.5069238 C-0.0355318406,12.7667512 0.00258700011,13.0436036 0.139690364,13.2749968 L2.18500867,16.7439227 C2.46236728,17.2118871 3.06293012,17.3724087 3.53683337,17.1052455 L6.03145751,15.6949904 C6.32733782,15.8915259 6.63319872,16.0695416 6.95546466,16.2203825 L6.95546466,19.0037399 C6.95766794,19.5529785 7.40243475,19.9976763 7.95175148,19.9998721 L12.0482489,19.9998721 C12.5983285,19.9987475 13.0442798,19.5537379 13.0464894,19.0037399 L13.0464894,16.2203825 C13.3681914,16.0684455 13.6733607,15.8926975 13.9685429,15.6949904 L16.4651211,17.1052455 C16.9385781,17.3711097 17.5377087,17.2107391 17.8149917,16.7439227 L19.8603102,13.274959 C19.9974134,13.0435655 20.0355319,12.7667129 19.9660625,12.5068855 C19.8965932,12.2470581 19.7253911,12.026155 19.4910957,11.8940331 L17.0921934,10.5424363 C17.1070092,10.3621529 17.1424838,10.1845151 17.1429827,10.0033245 C17.1429922,10.0008049 17.1429922,9.99828517 17.1429827,9.99576549 C17.1421644,9.81548203 17.1071528,9.6382222 17.0921934,9.45861906 L19.4910957,8.09919864 C19.723252,7.96707308 19.8929083,7.74759135 19.9622624,7.48965773 C20.0316164,7.2317241 19.9949058,6.95676952 19.8603102,6.72605855 L17.8149917,3.25717051 C17.5377087,2.79035406 16.9385781,2.62998349 16.4651211,2.89584769 L13.9763567,4.29824133 C13.6794521,4.10019409 13.370071,3.93238308 13.0464894,3.78063505 L13.0464894,0.997277694 C13.0442798,0.447279679 12.5983285,0.00227013156 12.0482489,0.00114545377 L7.95175148,0.00114545377 C7.91986299,-0.000381817923 7.88791966,-0.000381817923 7.85603117,0.00114545377 L7.85603003,0.00114545377 Z M8.95585247,2.00127135 L11.0441483,2.00127135 L11.0441483,4.34903818 C11.0450464,4.77715006 11.3183626,5.15721525 11.723967,5.29437357 C12.3200544,5.49922395 12.8699439,5.81205544 13.3492821,6.21049321 C13.6682645,6.47495075 14.1173014,6.51538318 14.4784068,6.3121625 L16.5901452,5.11677358 L17.6235485,6.85906012 L15.5411128,8.03294353 C15.167361,8.24574223 14.971497,8.6736019 15.0546906,9.09551986 C15.1124418,9.39221276 15.1407656,9.69393243 15.1425987,9.99595447 C15.1417645,10.3002064 15.1123246,10.6049119 15.0546906,10.9041749 C14.9705792,11.3267377 15.1665704,11.7556674 15.5411128,11.9687166 L17.6157339,13.1347764 L16.5901452,14.8770251 L14.4784068,13.6875323 C14.1150007,13.4811959 13.6616023,13.5224941 13.3414683,13.7910913 C12.8634098,14.1903606 12.311292,14.5009244 11.7161536,14.7071354 C11.3142896,14.8467373 11.0447051,15.225214 11.0441483,15.650581 L11.0441483,17.9983478 L8.95585247,17.9983478 L8.95585247,15.650581 C8.95748598,15.2203009 8.68369489,14.8372009 8.27603342,14.6993495 C7.68006733,14.4948771 7.13214849,14.1889622 6.6526716,13.7910913 C6.33370612,13.5251441 5.88356186,13.4839299 5.52159322,13.6875323 L3.40985561,14.8770251 L2.38426611,13.1347764 L4.45888725,11.9687166 C4.8341802,11.7562417 5.03101691,11.3271851 4.94726304,10.9041749 C4.88951564,10.607482 4.85922651,10.3057245 4.857401,10.0037403 L4.857401,9.99618124 C4.8586815,9.694197 4.89009391,9.39262851 4.94726304,9.09574663 C5.03009841,8.67338177 4.83338944,8.24539549 4.45888687,8.0331703 L2.37645194,6.86711051 L3.40985561,5.11700035 L5.52159284,6.31435463 C5.884999,6.52069113 6.33839765,6.47939293 6.65853176,6.21079558 C7.13659057,5.8115263 7.68870847,5.50092474 8.28384683,5.29467593 C8.68636629,5.15484598 8.95609964,4.7754018 8.9558521,4.34934054 L8.95585247,2.00127135 Z M10.0048837,6.99958294 C8.34610926,6.99958294 6.95546466,8.34006793 6.95546466,9.99776864 C6.95546466,11.6554694 8.34610926,13.0018504 10.0048837,13.0018504 C11.6636593,13.0018504 13.0464894,11.6554694 13.0464894,9.99776864 C13.0464894,8.34006793 11.6636593,6.99958294 10.0048837,6.99958294 Z M10.0048837,8.99967105 C10.6072074,8.99967105 11.0441483,9.44618441 11.0441483,9.99776864 C11.0441483,10.5493151 10.6072074,11.0017245 10.0048837,11.0017245 C9.40256086,11.0017245 8.95585247,10.5493151 8.95585247,9.99776864 C8.95585247,9.44618441 9.40256086,8.99967105 10.0048837,8.99967105 Z" id="Shape"></path>
  </g>
</svg>