<?xml version="1.0" encoding="UTF-8"?>
<svg
  id="hitpay"
  fill="currentColor"
  width="20px" height="20px" viewBox="0 0 20 20" version="1.1" xmlns="http://www.w3.org/2000/svg" xmlns:xlink="http://www.w3.org/1999/xlink">
  <g>
    <path d="M4.9872888,0.000381347963 C4.72788199,0.00811864165 4.48167685,0.11656377 4.30083464,0.30274144 L0.306918867,4.29744739 C0.11854303,4.48490062 0.0126334055,4.73971951 0.0126334055,5.00549914 C0.0126334055,5.27127876 0.11854303,5.52609765 0.306918867,5.71355089 L4.30083464,9.70833243 C4.5496072,9.97792803 4.926127,10.089409 5.28153527,9.99870094 C5.63694354,9.90799284 5.91402496,9.62969827 6.00323416,9.2738422 C6.09244337,8.91798613 5.97941904,8.54185599 5.70884584,8.29415648 L3.42326508,6.00808741 L18.9835458,6.00808741 C19.5264374,5.99615415 19.9603147,5.55254562 19.9603147,5.00941092 C19.9603147,4.46627623 19.5264374,4.02266769 18.9835458,4.01073443 L3.41546457,4.01073443 L5.70884584,1.71687959 C6.00504617,1.43047503 6.09498984,0.991527478 5.93531135,0.611671372 C5.77563286,0.231815266 5.3991136,-0.0109663723 4.9872888,0.000381347963 Z M14.9876799,9.98918716 C14.5803366,9.98924716 14.213862,10.2367734 14.0616165,10.614674 C13.909371,10.9925745 14.0018771,11.4250874 14.2953747,11.7076129 L16.5809558,13.9917167 L1.02067524,13.9917167 C0.65871829,13.98376 0.320799349,14.1723509 0.137485435,14.4846205 C-0.0458284785,14.7968902 -0.0458284785,15.1839339 0.137485435,15.4962036 C0.320799349,15.8084733 0.65871829,15.9970641 1.02067524,15.9891074 L16.588756,15.9891074 L14.2953747,18.2829623 C14.0354286,18.5342134 13.9315378,18.9063622 14.0237471,19.2559633 C14.1159565,19.6055643 14.3898668,19.8780248 14.7398989,19.9683242 C15.0899309,20.0586236 15.4614245,19.952661 15.7111868,19.69128 L19.7051025,15.7023567 C19.8934783,15.5149035 19.9993879,15.2600846 19.9993879,14.9943049 C19.9993879,14.7285253 19.8934783,14.4737064 19.7051025,14.2862532 L15.7111868,10.2915473 C15.521323,10.0963079 15.2599785,9.98708966 14.9876799,9.98918716 L14.9876799,9.98918716 Z" id="Shape"></path>
  </g>
</svg>