<?xml version="1.0" encoding="UTF-8"?>
<svg width="84px" height="23px" viewBox="0 0 84 23" version="1.1" xmlns="http://www.w3.org/2000/svg" xmlns:xlink="http://www.w3.org/1999/xlink">
    <title>alipay</title>
    <defs>
        <rect id="path-1" x="0" y="0" width="135" height="41" rx="8"></rect>
        <filter x="-11.9%" y="-34.1%" width="123.7%" height="178.0%" filterUnits="objectBoundingBox" id="filter-2">
            <feOffset dx="0" dy="2" in="SourceAlpha" result="shadowOffsetOuter1"></feOffset>
            <feGaussianBlur stdDeviation="5" in="shadowOffsetOuter1" result="shadowBlurOuter1"></feGaussianBlur>
            <feColorMatrix values="0 0 0 0 0   0 0 0 0 0   0 0 0 0 0  0 0 0 0.2 0" type="matrix" in="shadowBlurOuter1"></feColorMatrix>
        </filter>
    </defs>
    <g id="Symbols" stroke="none" stroke-width="1" fill="none" fill-rule="evenodd">
        <g id="payments_visa" transform="translate(-347.000000, -46.000000)">
            <g id="Group-4" transform="translate(0.000000, 37.000000)">
                <g id="alipay" transform="translate(304.000000, 0.000000)">
                    <g transform="translate(43.000000, 9.000000)" fill-rule="nonzero" id="Shape">
                        <path d="M18.550875,0.563325 L4.209675,0.563325 C2.34765,0.563325 0.8436,2.067375 0.8436,3.9294 L0.8436,18.245625 C0.8436,20.132625 2.34765,21.636675 4.209675,21.636675 L18.523125,21.636675 C20.4129,21.636675 21.91695,20.132625 21.91695,18.273375 L21.91695,18.051375 C21.91695,18.051375 16.4724,15.7842 13.705725,14.438325 C11.8437,16.6833 9.46275,18.079125 6.99855,18.079125 C2.811075,18.079125 1.3875,14.41335 3.35775,12.007425 C3.7962,11.485725 4.53435,10.964025 5.658225,10.6893 C7.437,10.253625 10.28415,10.964025 12.93705,11.840925 C13.40325,10.964025 13.81395,9.9789 14.11365,8.938275 L5.9052,8.938275 L5.9052,8.11965 L10.148175,8.11965 L10.148175,6.612825 L5.058825,6.612825 L5.058825,5.791425 L10.175925,5.791425 L10.175925,3.654675 C10.175925,3.654675 10.175925,3.299475 10.531125,3.299475 L12.612375,3.299475 L12.612375,5.78865 L17.67675,5.78865 L17.67675,6.61005 L12.612375,6.61005 L12.612375,8.116875 L16.747125,8.116875 C16.383531,9.6718498 15.7935623,11.1650035 14.9961,12.54855 C16.25595,13.01475 17.37705,13.42545 18.2262,13.72515 C21.237075,14.738025 21.9225,14.793525 21.9225,14.793525 L21.9225,3.9294 C21.9194384,2.06947071 20.4108068,0.563325 18.550875,0.563325" fill="#00A0E9"></path>
                        <path d="M4.0737,12.54855 C2.4309,13.9194 3.416025,16.436325 6.729375,16.436325 C8.644125,16.436325 10.56165,15.25695 12.0657,13.372725 C9.92895,12.357075 8.09745,11.646675 6.15495,11.83815 C5.6055,11.8659 4.620375,12.085125 4.0737,12.54855" fill="#00A0E9"></path>
                        <path d="M30.733125,8.227875 L33.141825,13.428225 L28.2162,13.428225 L30.733125,8.227875 Z M34.3434,16.1616 L37.243275,16.1616 L31.8237,4.392825 L31.03005,4.392825 C30.894075,4.392825 30.783075,4.42335 30.67485,4.503825 C30.566625,4.5843 30.483375,4.670325 30.427875,4.77855 L24.927825,16.164375 L26.870325,16.164375 L27.85545,14.249625 L33.43875,14.249625 L34.3434,16.1616 L34.3434,16.1616 Z M41.078325,16.1616 L38.342175,16.1616 L38.342175,4.886775 C38.3486083,4.74807492 38.410358,4.61773819 38.5136156,4.52491061 C38.6168732,4.43208303 38.7530251,4.38450828 38.891625,4.392825 L41.106075,4.392825 L41.106075,16.1616 L41.078325,16.1616 L41.078325,16.1616 Z M43.2678,8.200125 C43.2678,8.061375 43.3233,7.95315 43.431525,7.84215 C43.5365672,7.74677184 43.6756168,7.69775435 43.81725,7.706175 L46.034475,7.706175 L46.034475,16.464075 L43.298325,16.464075 L43.298325,8.19735 L43.2678,8.19735 L43.2678,8.200125 Z M50.93235,14.055375 C50.9284743,14.463697 51.0848999,14.8572518 51.368025,15.1515 C51.50955,15.29025 51.69825,15.398475 51.889725,15.47895 C52.0812,15.559425 52.328175,15.587175 52.5474,15.587175 C52.766625,15.587175 52.98585,15.5067 53.177325,15.370725 C53.3925403,15.197597 53.5700774,14.9822861 53.699025,14.738025 C53.835,14.466075 53.976525,14.13585 54.057,13.7529 C54.1451909,13.3490077 54.1907653,12.9369776 54.192975,12.523575 C54.192975,11.94915 54.165225,11.457975 54.08475,11.019525 C54.004275,10.581075 53.8905,10.225875 53.754525,9.9234 C53.61855,9.620925 53.4576,9.4017 53.26335,9.265725 C53.0801432,9.12943522 52.858947,9.05376284 52.63065,9.049275 C52.4628338,9.05045123 52.2962111,9.07759764 52.1367,9.12975 C51.9774363,9.1843904 51.8297061,9.26813553 51.701025,9.376725 C51.56505,9.48495 51.423525,9.59595 51.290325,9.731925 C51.157125,9.8679 51.046125,10.00665 50.935125,10.1676 L50.935125,14.055375 L50.93235,14.055375 Z M48.193425,8.089125 C48.193425,7.95315 48.248925,7.8144 48.3294,7.733925 C48.4404,7.622925 48.5514,7.567425 48.687375,7.567425 L50.824125,7.567425 L50.824125,8.25285 C51.123825,8.005875 51.479025,7.78665 51.861975,7.62015 C52.2477,7.456425 52.7139,7.373175 53.23005,7.373175 C53.776725,7.373175 54.298425,7.484175 54.736875,7.7034 C55.203075,7.922625 55.586025,8.2251 55.91625,8.577525 C56.240925,8.96325 56.490675,9.398925 56.6544,9.892875 C56.818125,10.38405 56.929125,10.902975 56.929125,11.480175 C56.929125,12.190575 56.818125,12.84825 56.629425,13.450425 C56.2501341,14.595096 55.4188725,15.5346522 54.32895,16.0506 C53.782275,16.30035 53.15235,16.436325 52.4697,16.436325 C52.111725,16.436325 51.812025,16.436325 51.567825,16.408575 C51.3118725,16.3848732 51.0615586,16.3192478 50.8269,16.214325 L50.8269,19.71915 L48.198975,19.71915 L48.198975,8.089125 L48.193425,8.089125 Z M60.236925,13.455975 C60.2344842,12.4483945 61.0133323,11.6113148 62.018475,11.541225 C62.6484,11.485725 63.028575,11.6217 63.250575,11.76045 L63.250575,14.8518 C62.9276357,15.1856174 62.4829356,15.3739138 62.018475,15.3735007 C61.0044796,15.319799 60.2160344,14.4711765 60.236925,13.455975 L60.236925,13.455975 Z M63.960975,7.6812 C62.701125,7.323225 61.086075,7.24275 58.899375,7.817175 C58.97985,8.0364 59.0631,8.41935 59.143575,8.638575 C62.62065,8.0364 63.278325,8.499825 63.278325,10.00665 L63.278325,10.470075 C62.645625,10.414575 61.879725,10.3341 61.27755,10.30635 C58.899375,10.2786 58.04745,12.140625 58.04745,13.34775 C58.04745,15.426225 60.0177,17.36595 63.278325,15.920175 L63.278325,16.24485 L65.986725,16.24485 L65.986725,9.926175 C65.98395,8.6913 64.91835,7.95315 63.960975,7.6812 L63.960975,7.6812 Z M66.80535,7.40369999 L69.597,7.40369999 L72.363675,12.795525 L74.633625,7.733925 C74.689125,7.622925 74.744625,7.54245 74.85285,7.48695 C74.9523435,7.43231658 75.0640183,7.40369999 75.177525,7.40369999 L76.687125,7.40369999 L72.3054,17.1495 C71.2398,19.8024 68.695125,19.422225 68.228925,19.422225 L68.228925,17.94315 C68.584125,17.94315 69.760725,17.9709 70.276875,17.36595 C70.4058595,17.2007908 70.5079428,17.0162917 70.57935,16.819275 C70.659825,16.65555 70.715325,16.52235 70.798575,16.386375 L71.098275,15.6732 L66.80535,7.40369999 L66.80535,7.40369999 Z" fill="#000000"></path>
                        <path d="M46.00395,5.07825 C46.00395,5.763675 45.40455,6.31035 44.635875,6.31035 C43.869975,6.31035 43.2678,5.763675 43.2678,5.07825 C43.2678,4.392825 43.869975,3.848925 44.635875,3.848925 C45.40455,3.848925 46.00395,4.392825 46.00395,5.07825" fill="#00A0E9"></path>
                        <path d="M79.12635,5.217 L79.12635,5.436225 L79.6425,5.436225 L79.6425,6.8598 L79.9422,6.8598 L79.9422,5.436225 L80.4639,5.436225 L80.4639,5.217 L79.12635,5.217 Z M82.137225,5.217 L81.585,6.2271 L81.038325,5.217 L80.7636,5.217 L80.7636,6.8598 L81.038325,6.8598 L81.038325,5.763675 L81.476775,6.557325 L81.696,6.557325 L82.13445,5.763675 L82.13445,6.8598 L82.4064,6.8598 L82.4064,5.217 L82.137225,5.217 Z" fill="#000000"></path>
                    </g>
                </g>
            </g>
        </g>
    </g>
</svg>