<svg id="Layer_1" data-name="Layer 1" xmlns="http://www.w3.org/2000/svg" viewBox="0 0 90 90"><defs><style>.cls-1{fill:#358d8e;}.cls-2{fill:#a7d9c3;}</style></defs><title>hitpay-</title><rect class="cls-1" y="22.03" width="90" height="48.46"/><path class="cls-2" d="M8,41.16v-4.6H8a6.47,6.47,0,0,0,6.51-6.51h61A6.47,6.47,0,0,0,82,36.56h0V56h0a6.45,6.45,0,0,0-6.5,6.5h-61A6.46,6.46,0,0,0,8,56H8V41.16Z"/><path class="cls-1" d="M45,37.37c2.47,0,5.24,3.81,5.24,8.9S47.47,55.16,45,55.16s-5.24-3.81-5.24-8.89,2.77-8.9,5.24-8.9m0-5c-5.66,0-10.25,6.22-10.25,13.9S39.34,60.16,45,60.16s10.25-6.22,10.25-13.89S50.66,32.37,45,32.37Z"/><circle class="cls-1" cx="23.8" cy="46.27" r="3.71"/><circle class="cls-1" cx="66.2" cy="46.27" r="3.71"/></svg>