<svg id="Layer_1" data-name="Layer 1" xmlns="http://www.w3.org/2000/svg" viewBox="0 0 90 90"><defs><style>.cls-1{fill:#6f6e84;}.cls-2{fill:#c4e5d5;}.cls-3{fill:#fff;}.cls-4{fill:#e46748;}.cls-5{fill:#f1a738;}.cls-6{fill:#71c59f;}.cls-7{fill:#e8b6ad;}.cls-8{fill:#262b64;}</style></defs><title>hitpay-</title><path class="cls-1" d="M68.62,14.44H63.09v2.35H26.9V14.44H21.38a4.15,4.15,0,0,0-4.3,4V46.9L21.38,86a4.15,4.15,0,0,0,4.3,4H64.32a4.15,4.15,0,0,0,4.3-4l4.3-39.11V18.42A4.15,4.15,0,0,0,68.62,14.44Z"/><rect class="cls-2" x="25.86" y="25.67" width="38.28" height="17.87"/><rect class="cls-3" x="25.86" y="50.75" width="10.45" height="5.26" rx="2.63"/><rect class="cls-3" x="39.78" y="50.75" width="10.45" height="5.26" rx="2.63"/><rect class="cls-3" x="53.7" y="50.75" width="10.45" height="5.26" rx="2.63"/><rect class="cls-3" x="25.87" y="61.53" width="10.45" height="5.26" rx="2.63"/><rect class="cls-3" x="39.79" y="61.53" width="10.45" height="5.26" rx="2.63"/><rect class="cls-3" x="53.71" y="61.53" width="10.45" height="5.26" rx="2.63"/><rect class="cls-4" x="25.87" y="71.98" width="10.45" height="8.1" rx="4.05"/><rect class="cls-5" x="39.79" y="71.98" width="10.45" height="8.1" rx="4.05"/><rect class="cls-6" x="53.71" y="71.98" width="10.45" height="8.1" rx="4.05"/><path class="cls-7" d="M31.64,0H58.36a2.78,2.78,0,0,1,2.78,2.78v14a0,0,0,0,1,0,0H28.86a0,0,0,0,1,0,0v-14A2.78,2.78,0,0,1,31.64,0Z"/><rect class="cls-8" x="35.99" width="5.7" height="16.79"/></svg>