<?xml version="1.0" encoding="UTF-8"?>
<svg width="84px" height="22px" viewBox="0 0 84 22" version="1.1" xmlns="http://www.w3.org/2000/svg" xmlns:xlink="http://www.w3.org/1999/xlink">
    <title>wechatpay</title>
    <defs>
        <rect id="path-1" x="0" y="0" width="100" height="41" rx="8"></rect>
        <filter x="-16.0%" y="-34.1%" width="132.0%" height="178.0%" filterUnits="objectBoundingBox" id="filter-2">
            <feOffset dx="0" dy="2" in="SourceAlpha" result="shadowOffsetOuter1"></feOffset>
            <feGaussianBlur stdDeviation="5" in="shadowOffsetOuter1" result="shadowBlurOuter1"></feGaussianBlur>
            <feColorMatrix values="0 0 0 0 0   0 0 0 0 0   0 0 0 0 0  0 0 0 0.2 0" type="matrix" in="shadowBlurOuter1"></feColorMatrix>
        </filter>
    </defs>
    <g id="Symbols" stroke="none" stroke-width="1" fill="none" fill-rule="evenodd">
        <g id="payments_paynow-copy" transform="translate(-381.000000, -42.000000)">
            <g id="Group-4" transform="translate(1.000000, 33.000000)">
                <g id="wechat" transform="translate(372.000000, 0.000000)">
                    <g id="wechatpay" transform="translate(8.000000, 9.000000)" fill-rule="nonzero">
                        <path d="M8.38906337,13.5854975 C8.22457193,13.5854975 8.22457193,13.5854975 8.06008049,13.7574658 C7.73109762,13.7574658 7.56660618,13.5854975 7.40211474,13.4135291 L7.40211474,13.0695925 L5.26372604,8.25447947 C5.26372604,8.25447947 5.26372604,8.08251115 5.26372604,8.08251115 C5.26372604,7.91054282 5.42821748,7.7385745 5.59270891,7.7385745 C5.75720035,7.7385745 5.75720035,7.7385745 5.75720035,7.91054282 L8.22457193,9.63022605 C8.38906337,9.80219437 8.55355481,9.80219437 8.88253769,9.80219437 C9.04702913,9.80219437 9.21152056,9.80219437 9.21152056,9.80219437 L20.8904127,4.29920806 C18.4230411,1.5477149 15.1332124,0 11.5144007,0 C5.0992346,0 0,4.47117638 0,10.146131 C0,13.2415608 1.48042295,15.993054 3.94779453,17.7127372 C4.11228597,17.8847055 4.27677741,18.0566738 4.27677741,18.4006105 C4.27677741,18.4006105 4.27677741,18.5725788 4.27677741,18.5725788 C4.11228597,19.2604521 3.78330309,20.4642303 3.78330309,20.6361987 C3.78330309,20.808167 3.78330309,20.808167 3.78330309,20.9801353 C3.78330309,21.1521036 3.94779453,21.324072 4.11228597,21.324072 C4.11228597,21.324072 4.27677741,21.324072 4.27677741,21.324072 L6.74414899,19.7763571 C6.90864042,19.6043887 7.07313186,19.6043887 7.40211474,19.6043887 C7.56660618,19.6043887 7.56660618,19.6043887 7.73109762,19.6043887 C8.88253769,19.9483254 10.1984692,20.1202937 11.5144007,20.1202937 C17.9295668,20.1202937 23.0288014,15.6491173 23.0288014,9.97416269 C23.0288014,8.42644779 22.5353271,6.87873289 21.7128699,5.50298631 L8.38906337,13.5854975 L8.38906337,13.5854975 Z" id="Shape" fill="#39B54A"></path>
                        <path d="M39.7914734,11.2992135 L39.5740812,11.7537608 C39.356689,12.2083082 39.356689,12.6628555 39.1392968,13.1174028 C38.9219046,12.4355818 38.9219046,11.7537608 38.7045124,11.0719398 L37.6175513,6.98101377 L37.6175513,6.98101377 L36.9653747,6.98101377 L35.6610215,11.2992135 C35.4436293,11.9810345 35.2262371,12.6628555 35.2262371,13.3446765 L35.0088449,11.7537608 L33.9218838,6.98101377 L33.9218838,6.98101377 L33.052315,6.98101377 L35.0088449,14.7083185 L35.0088449,14.7083185 L35.6610215,14.7083185 L36.9653747,10.3901188 C37.1827669,9.7082978 37.4001591,9.02647679 37.4001591,8.57192946 C37.4001591,9.02647679 37.6175513,9.7082978 37.8349435,10.3901188 L38.9219046,14.7083185 L38.9219046,14.7083185 L39.5740812,14.7083185 L41.7480033,7.20828744 L41.7480033,7.20828744 L40.8784344,7.20828744 L39.7914734,11.2992135 Z" id="Shape" fill="#505052"></path>
                        <path d="M44.3567097,9.02647679 C42.8349643,9.02647679 41.9653955,10.1628451 41.9653955,11.9810345 C41.7480033,13.3446765 42.8349643,14.7083185 44.1393175,14.7083185 C44.1393175,14.7083185 44.3567097,14.7083185 44.3567097,14.7083185 C45.0088863,14.7083185 45.4436707,14.7083185 46.0958474,14.2537712 L46.3132396,14.2537712 L45.8784552,13.7992239 L45.8784552,13.7992239 C45.4436707,14.0264975 45.0088863,14.0264975 44.5741019,14.0264975 C43.4871409,14.0264975 42.8349643,13.3446765 42.8349643,11.9810345 L46.5306318,11.9810345 L46.5306318,11.9810345 C46.5306318,11.9810345 46.5306318,11.7537608 46.5306318,11.7537608 C46.5306318,11.2992135 46.3132396,10.6173925 46.0958474,10.1628451 C45.661063,9.48102413 45.0088863,9.02647679 44.3567097,9.02647679 L44.3567097,9.02647679 Z M42.6175721,11.2992135 C42.6175721,10.3901188 43.2697487,9.7082978 44.1393175,9.7082978 C44.5741019,9.7082978 44.7914941,9.7082978 45.0088863,10.1628451 C45.2262785,10.3901188 45.4436707,10.8446662 45.4436707,11.2992135 L42.6175721,11.2992135 Z" id="Shape" fill="#505052"></path>
                        <path d="M52.4002213,13.7992239 L52.4002213,13.7992239 C51.9654369,14.0264975 51.3132603,14.0264975 50.8784759,14.0264975 C49.3567304,14.0264975 48.0523772,12.8901292 48.0523772,11.5264872 C48.0523772,11.2992135 48.0523772,11.0719398 48.0523772,11.0719398 C47.834985,9.48102413 48.921946,7.89010845 50.4436915,7.89010845 C50.6610837,7.89010845 50.8784759,7.89010845 50.8784759,7.89010845 C51.3132603,7.89010845 51.7480447,7.89010845 52.1828291,8.11738212 L52.1828291,8.11738212 L52.6176135,7.43556111 L52.6176135,7.43556111 C52.1828291,7.20828744 51.5306525,6.98101377 50.8784759,6.98101377 C48.921946,6.98101377 47.1828084,8.57192946 47.1828084,10.6173925 C47.1828084,10.8446662 47.1828084,10.8446662 47.1828084,11.0719398 C46.9654162,13.1174028 48.2697694,14.7083185 50.2262993,14.9355922 C50.4436915,14.9355922 50.4436915,14.9355922 50.6610837,14.9355922 C51.3132603,14.9355922 51.9654369,14.7083185 52.6176135,14.4810449 L52.6176135,14.4810449 L52.4002213,13.7992239 L52.4002213,13.7992239 Z" id="Shape" fill="#505052"></path>
                        <path d="M56.0958888,9.02647679 C55.6611044,9.02647679 55.22632,9.25375046 55.0089278,9.25375046 C54.7915356,9.48102413 54.5741434,9.48102413 54.5741434,9.7082978 L54.5741434,6.7537401 L53.7045746,6.7537401 L53.7045746,14.7083185 L54.3567512,14.7083185 L54.3567512,11.2992135 C54.3567512,11.0719398 54.3567512,11.0719398 54.3567512,10.8446662 C54.5741434,10.1628451 55.0089278,9.7082978 55.6611044,9.7082978 C56.7480654,9.7082978 56.9654576,10.8446662 56.9654576,11.2992135 L56.9654576,14.4810449 L57.8350265,14.4810449 L57.8350265,11.0719398 C57.8350265,9.02647679 56.313281,9.02647679 56.0958888,9.02647679" id="Shape" fill="#505052"></path>
                        <path d="M65.0089692,7.89010845 L64.1394004,7.89010845 L64.1394004,9.02647679 L63.2698316,9.02647679 L63.2698316,9.7082978 L64.1394004,9.7082978 L64.1394004,12.8901292 C64.1394004,13.3446765 64.1394004,13.7992239 64.5741848,14.2537712 C64.791577,14.4810449 65.2263615,14.7083185 65.4437537,14.7083185 C65.6611459,14.7083185 65.8785381,14.7083185 66.3133225,14.4810449 L66.5307147,14.4810449 L66.0959303,14.0264975 L66.0959303,14.0264975 L65.6611459,14.0264975 C65.2263615,14.0264975 65.0089692,13.7992239 65.0089692,13.1174028 L65.0089692,9.7082978 L66.5307147,9.7082978 L66.5307147,9.02647679 L65.0089692,9.02647679 L65.0089692,7.89010845 Z" id="Shape" fill="#505052"></path>
                        <path d="M71.5307354,6.98101377 C71.095951,6.98101377 70.4437744,6.98101377 70.00899,7.20828744 L70.00899,7.20828744 L70.00899,14.7083185 L70.8785588,14.7083185 L70.8785588,11.5264872 C71.095951,11.5264872 71.3133432,11.5264872 71.5307354,11.5264872 C72.4003042,11.5264872 73.0524809,11.2992135 73.7046575,10.6173925 C74.1394419,10.1628451 74.3568341,9.7082978 74.1394419,9.02647679 C74.1394419,8.34465579 73.9220497,7.89010845 73.4872653,7.43556111 C73.0524809,7.20828744 72.4003042,6.7537401 71.5307354,6.98101377 L71.5307354,6.98101377 Z M70.6611666,7.66283478 C70.8785588,7.66283478 71.3133432,7.66283478 71.5307354,7.66283478 C72.6176964,7.66283478 73.2698731,8.11738212 73.2698731,9.25375046 C73.2698731,10.3901188 72.6176964,10.8446662 71.3133432,10.8446662 C71.095951,10.8446662 70.8785588,10.8446662 70.4437744,10.8446662 L70.6611666,7.66283478 Z" id="Shape" fill="#505052"></path>
                        <path d="M82.6177379,9.02647679 L81.3133847,12.4355818 C81.3133847,12.6628555 81.0959925,12.8901292 81.0959925,13.3446765 L80.8786003,12.6628555 L79.574247,9.25375046 L79.574247,9.25375046 L78.7046782,9.25375046 L80.6612081,14.2537712 C80.6612081,14.2537712 80.6612081,14.4810449 80.6612081,14.4810449 C80.6612081,14.4810449 80.6612081,14.4810449 80.6612081,14.7083185 C80.4438158,15.1628659 80.2264236,15.6174132 79.7916392,16.0719605 C79.574247,16.2992342 79.3568548,16.5265079 78.9220704,16.5265079 L78.7046782,16.5265079 L79.3568548,17.2083289 L79.3568548,17.2083289 C79.574247,16.9810552 79.7916392,16.7537816 80.0090314,16.7537816 C80.8786003,15.8446869 81.3133847,14.7083185 81.7481691,13.5719502 L83.2699145,9.48102413 L83.2699145,9.25375046 L82.6177379,9.02647679 Z" id="Shape" fill="#505052"></path>
                        <path d="M62.617655,13.3446765 L62.617655,11.2992135 C62.617655,9.93557147 61.9654784,9.02647679 60.6611251,9.02647679 C60.0089485,9.02647679 59.5741641,9.25375046 59.1393797,9.48102413 L59.1393797,9.48102413 L59.5741641,10.1628451 L59.5741641,10.1628451 C60.0089485,9.93557147 60.2263407,9.7082978 60.6611251,9.7082978 L60.6611251,9.7082978 C60.8785173,9.7082978 61.3133018,9.7082978 61.530694,9.93557147 C61.7480862,10.1628451 61.9654784,10.6173925 61.7480862,11.0719398 C60.8785173,11.0719398 59.7915563,11.2992135 59.1393797,11.9810345 C58.7045953,12.2083082 58.7045953,12.6628555 58.7045953,13.3446765 C58.7045953,14.2537712 59.3567719,14.9355922 60.2263407,14.9355922 C60.2263407,14.9355922 60.2263407,14.9355922 60.4437329,14.9355922 C61.0959095,14.9355922 61.530694,14.7083185 61.9654784,14.2537712 L61.9654784,14.7083185 L62.8350472,14.7083185 L62.8350472,14.4810449 C62.617655,14.0264975 62.617655,13.5719502 62.617655,13.3446765 M60.0089485,12.4355818 C60.6611251,11.9810345 61.3133018,11.7537608 61.9654784,11.9810345 L61.9654784,11.9810345 L61.9654784,12.8901292 C61.9654784,12.8901292 61.9654784,13.1174028 61.9654784,13.1174028 C61.7480862,13.7992239 61.0959095,14.0264975 60.4437329,14.0264975 C60.0089485,14.0264975 59.5741641,13.5719502 59.5741641,13.1174028 C59.5741641,13.1174028 59.5741641,13.1174028 59.5741641,12.8901292 C59.5741641,12.8901292 59.7915563,12.4355818 60.0089485,12.4355818" id="Shape" fill="#505052"></path>
                        <path d="M78.0525016,13.3446765 L78.0525016,11.2992135 C78.0525016,9.93557147 77.400325,9.02647679 76.0959717,9.02647679 C75.6611873,9.02647679 75.0090107,9.25375046 74.5742263,9.48102413 L74.5742263,9.48102413 L75.0090107,10.1628451 L75.0090107,10.1628451 C75.4437951,9.93557147 75.6611873,9.93557147 76.0959717,9.93557147 L76.0959717,9.93557147 C76.3133639,9.93557147 76.7481484,9.93557147 76.9655406,10.1628451 C77.1829328,10.3901188 77.400325,10.8446662 77.400325,11.2992135 C76.5307561,11.2992135 75.4437951,11.5264872 74.7916185,12.2083082 C74.5742263,12.4355818 74.3568341,13.1174028 74.3568341,13.5719502 C74.3568341,14.4810449 75.0090107,15.1628659 75.8785795,15.1628659 C75.8785795,15.1628659 75.8785795,15.1628659 76.0959717,15.1628659 C76.7481484,15.1628659 77.1829328,14.9355922 77.6177172,14.4810449 L77.6177172,14.9355922 L78.487286,14.9355922 L78.487286,14.7083185 C78.2698938,14.0264975 78.2698938,13.5719502 78.0525016,13.3446765 L78.0525016,13.3446765 Z M77.6177172,12.8901292 C77.6177172,12.8901292 77.6177172,13.1174028 77.6177172,13.1174028 C77.400325,13.7992239 76.7481484,14.0264975 76.3133639,14.0264975 C75.8785795,14.0264975 75.4437951,13.7992239 75.4437951,13.1174028 C75.4437951,13.1174028 75.4437951,13.1174028 75.4437951,12.8901292 C75.4437951,12.6628555 75.4437951,12.4355818 75.6611873,12.2083082 C76.3133639,11.7537608 76.9655406,11.5264872 77.6177172,11.7537608 L77.6177172,11.7537608 L77.6177172,12.8901292 Z" id="Shape" fill="#505052"></path>
                    </g>
                </g>
            </g>
        </g>
    </g>
</svg>