<?xml version="1.0" encoding="UTF-8"?>
<svg width="29px" height="28px" viewBox="0 0 29 28" version="1.1" xmlns="http://www.w3.org/2000/svg" xmlns:xlink="http://www.w3.org/1999/xlink">
    <title>wechatpay</title>
    <g id="Symbols" stroke="none" stroke-width="1" fill="none" fill-rule="evenodd">
        <g id="payments_visa" transform="translate(-494.000000, -44.000000)" fill-rule="nonzero">
            <g id="Group-5" transform="translate(0.000000, 4.000000)">
                <g id="Group-4" transform="translate(0.000000, 33.000000)">
                    <g id="wechat" transform="translate(451.000000, 0.000000)">
                        <g id="wechatpay" transform="translate(43.000000, 7.000000)">
                            <path d="M12.2034352,10.863364 C12.0826091,10.863364 12.0826091,10.863364 11.961783,10.9896822 C11.7201308,10.9896822 11.5993047,10.863364 11.4784786,10.7370458 L11.4784786,10.4844094 L9.90773946,6.94750023 C9.90773946,6.94750023 9.90773946,6.82118204 9.90773946,6.82118204 C9.90773946,6.69486386 10.0285655,6.56854567 10.1493916,6.56854567 C10.2702177,6.56854567 10.2702177,6.56854567 10.2702177,6.69486386 L12.0826091,7.95804572 C12.2034352,8.0843639 12.3242613,8.0843639 12.5659135,8.0843639 C12.6867395,8.0843639 12.8075656,8.0843639 12.8075656,8.0843639 L21.3862181,4.04218195 C19.5738267,2.02109098 17.1573049,0.884227302 14.4991309,0.884227302 C9.78691337,0.884227302 6.04130455,4.16850014 6.04130455,8.33700027 C6.04130455,10.6107276 7.12873937,12.6318186 8.94113073,13.8950005 C9.06195682,14.0213186 9.18278291,14.1476368 9.18278291,14.4002732 C9.18278291,14.4002732 9.18278291,14.5265914 9.18278291,14.5265914 C9.06195682,15.0318641 8.82030464,15.9160914 8.82030464,16.0424096 C8.82030464,16.1687278 8.82030464,16.1687278 8.82030464,16.295046 C8.82030464,16.4213642 8.94113073,16.5476824 9.06195682,16.5476824 C9.06195682,16.5476824 9.18278291,16.5476824 9.18278291,16.5476824 L10.9951743,15.4108187 C11.1160004,15.2845005 11.2368265,15.2845005 11.4784786,15.2845005 C11.5993047,15.2845005 11.5993047,15.2845005 11.7201308,15.2845005 C12.5659135,15.5371369 13.5325222,15.6634551 14.4991309,15.6634551 C19.2113485,15.6634551 22.9569573,12.3791822 22.9569573,8.21068209 C22.9569573,7.07381841 22.594479,5.93695474 21.9903486,4.92640925 L12.2034352,10.863364 L12.2034352,10.863364 Z" id="Shape" fill="#39B54A"></path>
                            <path d="M4.22891318,23.747819 L4.10808709,24.0004553 C3.987261,24.2530917 3.987261,24.5057281 3.86643491,24.7583645 C3.74560882,24.3794099 3.74560882,24.0004553 3.62478273,23.6215008 L3.02065227,21.3477734 L3.02065227,21.3477734 L2.658174,21.3477734 L1.93321745,23.747819 C1.81239136,24.1267735 1.69156527,24.5057281 1.69156527,24.8846826 L1.57073918,24.0004553 L0.966608727,21.3477734 L0.966608727,21.3477734 L0.483304364,21.3477734 L1.57073918,25.6425918 L1.57073918,25.6425918 L1.93321745,25.6425918 L2.658174,23.2425462 C2.77900009,22.8635917 2.89982618,22.4846371 2.89982618,22.2320007 C2.89982618,22.4846371 3.02065227,22.8635917 3.14147836,23.2425462 L3.74560882,25.6425918 L3.74560882,25.6425918 L4.10808709,25.6425918 L5.316348,21.4740916 L5.316348,21.4740916 L4.83304364,21.4740916 L4.22891318,23.747819 Z" id="Shape" fill="#505052"></path>
                            <path d="M6.76626109,22.4846371 C5.92047846,22.4846371 5.43717409,23.116228 5.43717409,24.1267735 C5.316348,24.8846826 5.92047846,25.6425918 6.645435,25.6425918 C6.645435,25.6425918 6.76626109,25.6425918 6.76626109,25.6425918 C7.12873937,25.6425918 7.37039155,25.6425918 7.73286982,25.3899554 L7.85369591,25.3899554 L7.61204373,25.137319 L7.61204373,25.137319 C7.37039155,25.2636372 7.12873937,25.2636372 6.88708718,25.2636372 C6.28295673,25.2636372 5.92047846,24.8846826 5.92047846,24.1267735 L7.974522,24.1267735 L7.974522,24.1267735 C7.974522,24.1267735 7.974522,24.0004553 7.974522,24.0004553 C7.974522,23.747819 7.85369591,23.3688644 7.73286982,23.116228 C7.49121764,22.7372735 7.12873937,22.4846371 6.76626109,22.4846371 L6.76626109,22.4846371 Z M5.79965236,23.747819 C5.79965236,23.2425462 6.16213064,22.8635917 6.645435,22.8635917 C6.88708718,22.8635917 7.00791327,22.8635917 7.12873937,23.116228 C7.24956546,23.2425462 7.37039155,23.4951826 7.37039155,23.747819 L5.79965236,23.747819 Z" id="Shape" fill="#505052"></path>
                            <path d="M11.2368265,25.137319 L11.2368265,25.137319 C10.9951743,25.2636372 10.632696,25.2636372 10.3910438,25.2636372 C9.54526118,25.2636372 8.82030464,24.6320463 8.82030464,23.8741372 C8.82030464,23.747819 8.82030464,23.6215008 8.82030464,23.6215008 C8.69947855,22.7372735 9.303609,21.8530462 10.1493916,21.8530462 C10.2702177,21.8530462 10.3910438,21.8530462 10.3910438,21.8530462 C10.632696,21.8530462 10.8743482,21.8530462 11.1160004,21.9793644 L11.1160004,21.9793644 L11.3576525,21.6004098 L11.3576525,21.6004098 C11.1160004,21.4740916 10.7535221,21.3477734 10.3910438,21.3477734 C9.303609,21.3477734 8.33700027,22.2320007 8.33700027,23.3688644 C8.33700027,23.4951826 8.33700027,23.4951826 8.33700027,23.6215008 C8.21617418,24.7583645 8.94113073,25.6425918 10.0285655,25.7689099 C10.1493916,25.7689099 10.1493916,25.7689099 10.2702177,25.7689099 C10.632696,25.7689099 10.9951743,25.6425918 11.3576525,25.5162736 L11.3576525,25.5162736 L11.2368265,25.137319 L11.2368265,25.137319 Z" id="Shape" fill="#505052"></path>
                            <path d="M13.29087,22.4846371 C13.0492178,22.4846371 12.8075656,22.6109553 12.6867395,22.6109553 C12.5659135,22.7372735 12.4450874,22.7372735 12.4450874,22.8635917 L12.4450874,21.2214552 L11.961783,21.2214552 L11.961783,25.6425918 L12.3242613,25.6425918 L12.3242613,23.747819 C12.3242613,23.6215008 12.3242613,23.6215008 12.3242613,23.4951826 C12.4450874,23.116228 12.6867395,22.8635917 13.0492178,22.8635917 C13.6533483,22.8635917 13.7741744,23.4951826 13.7741744,23.747819 L13.7741744,25.5162736 L14.2574787,25.5162736 L14.2574787,23.6215008 C14.2574787,22.4846371 13.4116961,22.4846371 13.29087,22.4846371" id="Shape" fill="#505052"></path>
                            <path d="M18.2447397,21.8530462 L17.7614354,21.8530462 L17.7614354,22.4846371 L17.278131,22.4846371 L17.278131,22.8635917 L17.7614354,22.8635917 L17.7614354,24.6320463 C17.7614354,24.8846826 17.7614354,25.137319 18.0030875,25.3899554 C18.1239136,25.5162736 18.3655658,25.6425918 18.4863919,25.6425918 C18.607218,25.6425918 18.7280441,25.6425918 18.9696963,25.5162736 L19.0905224,25.5162736 L18.8488702,25.2636372 L18.8488702,25.2636372 L18.607218,25.2636372 C18.3655658,25.2636372 18.2447397,25.137319 18.2447397,24.7583645 L18.2447397,22.8635917 L19.0905224,22.8635917 L19.0905224,22.4846371 L18.2447397,22.4846371 L18.2447397,21.8530462 Z" id="Shape" fill="#505052"></path>
                            <path d="M21.8695225,21.3477734 C21.6278703,21.3477734 21.265392,21.3477734 21.0237398,21.4740916 L21.0237398,21.4740916 L21.0237398,25.6425918 L21.5070442,25.6425918 L21.5070442,23.8741372 C21.6278703,23.8741372 21.7486964,23.8741372 21.8695225,23.8741372 C22.3528268,23.8741372 22.7153051,23.747819 23.0777834,23.3688644 C23.3194356,23.116228 23.4402616,22.8635917 23.3194356,22.4846371 C23.3194356,22.1056825 23.1986095,21.8530462 22.9569573,21.6004098 C22.7153051,21.4740916 22.3528268,21.2214552 21.8695225,21.3477734 L21.8695225,21.3477734 Z M21.3862181,21.726728 C21.5070442,21.726728 21.7486964,21.726728 21.8695225,21.726728 C22.4736529,21.726728 22.8361312,21.9793644 22.8361312,22.6109553 C22.8361312,23.2425462 22.4736529,23.4951826 21.7486964,23.4951826 C21.6278703,23.4951826 21.5070442,23.4951826 21.265392,23.4951826 L21.3862181,21.726728 Z" id="Shape" fill="#505052"></path>
                            <path d="M28.0316531,22.4846371 L27.3066966,24.3794099 C27.3066966,24.5057281 27.1858705,24.6320463 27.1858705,24.8846826 L27.0650444,24.5057281 L26.3400878,22.6109553 L26.3400878,22.6109553 L25.8567835,22.6109553 L26.9442183,25.3899554 C26.9442183,25.3899554 26.9442183,25.5162736 26.9442183,25.5162736 C26.9442183,25.5162736 26.9442183,25.5162736 26.9442183,25.6425918 C26.8233922,25.8952281 26.7025661,26.1478645 26.4609139,26.4005009 C26.3400878,26.5268191 26.2192617,26.6531372 25.9776096,26.6531372 L25.8567835,26.6531372 L26.2192617,27.0320918 L26.2192617,27.0320918 C26.3400878,26.9057736 26.4609139,26.7794554 26.58174,26.7794554 C27.0650444,26.2741827 27.3066966,25.6425918 27.5483487,25.0110008 L28.3941314,22.7372735 L28.3941314,22.6109553 L28.0316531,22.4846371 Z" id="Shape" fill="#505052"></path>
                            <path d="M16.9156527,24.8846826 L16.9156527,23.747819 C16.9156527,22.9899098 16.5531745,22.4846371 15.8282179,22.4846371 C15.4657396,22.4846371 15.2240875,22.6109553 14.9824353,22.7372735 L14.9824353,22.7372735 L15.2240875,23.116228 L15.2240875,23.116228 C15.4657396,22.9899098 15.5865657,22.8635917 15.8282179,22.8635917 L15.8282179,22.8635917 C15.949044,22.8635917 16.1906962,22.8635917 16.3115223,22.9899098 C16.4323484,23.116228 16.5531745,23.3688644 16.4323484,23.6215008 C15.949044,23.6215008 15.3449135,23.747819 14.9824353,24.1267735 C14.7407831,24.2530917 14.7407831,24.5057281 14.7407831,24.8846826 C14.7407831,25.3899554 15.1032614,25.7689099 15.5865657,25.7689099 C15.5865657,25.7689099 15.5865657,25.7689099 15.7073918,25.7689099 C16.0698701,25.7689099 16.3115223,25.6425918 16.5531745,25.3899554 L16.5531745,25.6425918 L17.0364788,25.6425918 L17.0364788,25.5162736 C16.9156527,25.2636372 16.9156527,25.0110008 16.9156527,24.8846826 M15.4657396,24.3794099 C15.8282179,24.1267735 16.1906962,24.0004553 16.5531745,24.1267735 L16.5531745,24.1267735 L16.5531745,24.6320463 C16.5531745,24.6320463 16.5531745,24.7583645 16.5531745,24.7583645 C16.4323484,25.137319 16.0698701,25.2636372 15.7073918,25.2636372 C15.4657396,25.2636372 15.2240875,25.0110008 15.2240875,24.7583645 C15.2240875,24.7583645 15.2240875,24.7583645 15.2240875,24.6320463 C15.2240875,24.6320463 15.3449135,24.3794099 15.4657396,24.3794099" id="Shape" fill="#505052"></path>
                            <path d="M25.4943052,24.8846826 L25.4943052,23.747819 C25.4943052,22.9899098 25.1318269,22.4846371 24.4068704,22.4846371 C24.1652182,22.4846371 23.8027399,22.6109553 23.5610877,22.7372735 L23.5610877,22.7372735 L23.8027399,23.116228 L23.8027399,23.116228 C24.0443921,22.9899098 24.1652182,22.9899098 24.4068704,22.9899098 L24.4068704,22.9899098 C24.5276965,22.9899098 24.7693486,22.9899098 24.8901747,23.116228 C25.0110008,23.2425462 25.1318269,23.4951826 25.1318269,23.747819 C24.6485226,23.747819 24.0443921,23.8741372 23.6819138,24.2530917 C23.5610877,24.3794099 23.4402616,24.7583645 23.4402616,25.0110008 C23.4402616,25.5162736 23.8027399,25.8952281 24.2860443,25.8952281 C24.2860443,25.8952281 24.2860443,25.8952281 24.4068704,25.8952281 C24.7693486,25.8952281 25.0110008,25.7689099 25.252653,25.5162736 L25.252653,25.7689099 L25.7359574,25.7689099 L25.7359574,25.6425918 C25.6151313,25.2636372 25.6151313,25.0110008 25.4943052,24.8846826 L25.4943052,24.8846826 Z M25.252653,24.6320463 C25.252653,24.6320463 25.252653,24.7583645 25.252653,24.7583645 C25.1318269,25.137319 24.7693486,25.2636372 24.5276965,25.2636372 C24.2860443,25.2636372 24.0443921,25.137319 24.0443921,24.7583645 C24.0443921,24.7583645 24.0443921,24.7583645 24.0443921,24.6320463 C24.0443921,24.5057281 24.0443921,24.3794099 24.1652182,24.2530917 C24.5276965,24.0004553 24.8901747,23.8741372 25.252653,24.0004553 L25.252653,24.0004553 L25.252653,24.6320463 Z" id="Shape" fill="#505052"></path>
                        </g>
                    </g>
                </g>
            </g>
        </g>
    </g>
</svg>