<?xml version="1.0" encoding="UTF-8"?>
<svg width="86px" height="22px" viewBox="0 0 86 22" version="1.1" xmlns="http://www.w3.org/2000/svg" xmlns:xlink="http://www.w3.org/1999/xlink">
    <!-- Generator: Sketch 47.1 (45422) - http://www.bohemiancoding.com/sketch -->
    <title>wechatpay</title>
    <desc>Created with Sketch.</desc>
    <defs></defs>
    <g id="Symbols" stroke="none" stroke-width="1" fill="none" fill-rule="evenodd">
        <g id="payments_paynow-copy" transform="translate(-381.000000, -42.000000)" fill-rule="nonzero">
            <g id="Group-4" transform="translate(1.000000, 33.000000)">
                <g id="wechat" transform="translate(372.000000, 0.000000)">
                    <g id="wechatpay" transform="translate(8.000000, 9.000000)">
                        <path d="M8.38906337,13.5854975 C8.22457193,13.5854975 8.22457193,13.5854975 8.06008049,13.7574658 C7.73109762,13.7574658 7.56660618,13.5854975 7.40211474,13.4135291 L7.40211474,13.0695925 L5.26372604,8.25447947 C5.26372604,8.25447947 5.26372604,8.08251115 5.26372604,8.08251115 C5.26372604,7.91054282 5.42821748,7.7385745 5.59270891,7.7385745 C5.75720035,7.7385745 5.75720035,7.7385745 5.75720035,7.91054282 L8.22457193,9.63022605 C8.38906337,9.80219437 8.55355481,9.80219437 8.88253769,9.80219437 C9.04702913,9.80219437 9.21152056,9.80219437 9.21152056,9.80219437 L20.8904127,4.29920806 C18.4230411,1.5477149 15.1332124,0 11.5144007,0 C5.0992346,0 0,4.47117638 0,10.146131 C0,13.2415608 1.48042295,15.993054 3.94779453,17.7127372 C4.11228597,17.8847055 4.27677741,18.0566738 4.27677741,18.4006105 C4.27677741,18.4006105 4.27677741,18.5725788 4.27677741,18.5725788 C4.11228597,19.2604521 3.78330309,20.4642303 3.78330309,20.6361987 C3.78330309,20.808167 3.78330309,20.808167 3.78330309,20.9801353 C3.78330309,21.1521036 3.94779453,21.324072 4.11228597,21.324072 C4.11228597,21.324072 4.27677741,21.324072 4.27677741,21.324072 L6.74414899,19.7763571 C6.90864042,19.6043887 7.07313186,19.6043887 7.40211474,19.6043887 C7.56660618,19.6043887 7.56660618,19.6043887 7.73109762,19.6043887 C8.88253769,19.9483254 10.1984692,20.1202937 11.5144007,20.1202937 C17.9295668,20.1202937 23.0288014,15.6491173 23.0288014,9.97416269 C23.0288014,8.42644779 22.5353271,6.87873289 21.7128699,5.50298631 L8.38906337,13.5854975 L8.38906337,13.5854975 Z" id="Shape" fill="#39B54A"></path>
                        <g id="Group-3" transform="translate(27.000000, 5.000000)" fill="#000000">
                            <path d="M7.85547096,6.12942365 L7.60402064,6.65518341 C7.35257032,7.18094317 7.35257032,7.70670293 7.10112,8.23246269 C6.84966968,7.44382305 6.84966968,6.65518341 6.59821936,5.86654377 L5.34096777,1.13470594 L5.34096777,1.13470594 L4.58661681,1.13470594 L3.07791489,6.12942365 C2.82646457,6.91806329 2.57501425,7.70670293 2.57501425,8.49534257 L2.32356393,6.65518341 L1.06631233,1.13470594 L1.06631233,1.13470594 L0.0605110477,1.13470594 L2.32356393,10.0726219 L2.32356393,10.0726219 L3.07791489,10.0726219 L4.58661681,5.07790413 C4.83806713,4.28926449 5.08951745,3.50062485 5.08951745,2.97486509 C5.08951745,3.50062485 5.34096777,4.28926449 5.59241809,5.07790413 L6.84966968,10.0726219 L6.84966968,10.0726219 L7.60402064,10.0726219 L10.1185238,1.39758582 L10.1185238,1.39758582 L9.11272256,1.39758582 L7.85547096,6.12942365 Z" id="Shape"></path>
                            <path d="M13.1359277,3.50062485 C11.3757754,3.50062485 10.3699742,4.81502425 10.3699742,6.91806329 C10.1185238,8.49534257 11.3757754,10.0726219 12.8844774,10.0726219 C12.8844774,10.0726219 13.1359277,10.0726219 13.1359277,10.0726219 C13.8902786,10.0726219 14.3931793,10.0726219 15.1475302,9.54686209 L15.3989806,9.54686209 L14.8960799,9.02110233 L14.8960799,9.02110233 C14.3931793,9.28398221 13.8902786,9.28398221 13.387378,9.28398221 C12.1301264,9.28398221 11.3757754,8.49534257 11.3757754,6.91806329 L15.6504309,6.91806329 L15.6504309,6.91806329 C15.6504309,6.91806329 15.6504309,6.65518341 15.6504309,6.65518341 C15.6504309,6.12942365 15.3989806,5.34078401 15.1475302,4.81502425 C14.6446296,4.02638461 13.8902786,3.50062485 13.1359277,3.50062485 L13.1359277,3.50062485 Z M11.1243251,6.12942365 C11.1243251,5.07790413 11.8786761,4.28926449 12.8844774,4.28926449 C13.387378,4.28926449 13.6388283,4.28926449 13.8902786,4.81502425 C14.141729,5.07790413 14.3931793,5.60366389 14.3931793,6.12942365 L11.1243251,6.12942365 Z" id="Shape"></path>
                            <path d="M22.4395895,9.02110233 L22.4395895,9.02110233 C21.9366889,9.28398221 21.1823379,9.28398221 20.6794373,9.28398221 C18.919285,9.28398221 17.4105831,7.96958281 17.4105831,6.39230353 C17.4105831,6.12942365 17.4105831,5.86654377 17.4105831,5.86654377 C17.1591328,4.02638461 18.4163844,2.18622546 20.1765366,2.18622546 C20.427987,2.18622546 20.6794373,2.18622546 20.6794373,2.18622546 C21.1823379,2.18622546 21.6852386,2.18622546 22.1881392,2.44910533 L22.1881392,2.44910533 L22.6910398,1.6604657 L22.6910398,1.6604657 C22.1881392,1.39758582 21.4337882,1.13470594 20.6794373,1.13470594 C18.4163844,1.13470594 16.4047818,2.97486509 16.4047818,5.34078401 C16.4047818,5.60366389 16.4047818,5.60366389 16.4047818,5.86654377 C16.1533315,8.23246269 17.6620334,10.0726219 19.9250863,10.3355017 C20.1765366,10.3355017 20.1765366,10.3355017 20.427987,10.3355017 C21.1823379,10.3355017 21.9366889,10.0726219 22.6910398,9.80974197 L22.6910398,9.80974197 L22.4395895,9.02110233 L22.4395895,9.02110233 Z" id="Shape"></path>
                            <path d="M26.714245,3.50062485 C26.2113443,3.50062485 25.7084437,3.76350473 25.4569934,3.76350473 C25.205543,4.02638461 24.9540927,4.02638461 24.9540927,4.28926449 L24.9540927,0.871826056 L23.9482914,0.871826056 L23.9482914,10.0726219 L24.7026424,10.0726219 L24.7026424,6.12942365 C24.7026424,5.86654377 24.7026424,5.86654377 24.7026424,5.60366389 C24.9540927,4.81502425 25.4569934,4.28926449 26.2113443,4.28926449 C27.4685959,4.28926449 27.7200462,5.60366389 27.7200462,6.12942365 L27.7200462,9.80974197 L28.7258475,9.80974197 L28.7258475,5.86654377 C28.7258475,3.50062485 26.9656953,3.50062485 26.714245,3.50062485" id="Shape"></path>
                            <path d="M37.0237081,2.18622546 L36.0179068,2.18622546 L36.0179068,3.50062485 L35.0121055,3.50062485 L35.0121055,4.28926449 L36.0179068,4.28926449 L36.0179068,7.96958281 C36.0179068,8.49534257 36.0179068,9.02110233 36.5208074,9.54686209 C36.7722578,9.80974197 37.2751584,10.0726219 37.5266087,10.0726219 C37.778059,10.0726219 38.0295093,10.0726219 38.53241,9.80974197 L38.7838603,9.80974197 L38.2809597,9.28398221 L38.2809597,9.28398221 L37.778059,9.28398221 C37.2751584,9.28398221 37.0237081,9.02110233 37.0237081,8.23246269 L37.0237081,4.28926449 L38.7838603,4.28926449 L38.7838603,3.50062485 L37.0237081,3.50062485 L37.0237081,2.18622546 Z" id="Shape"></path>
                            <path d="M44.5672177,1.13470594 C44.064317,1.13470594 43.3099661,1.13470594 42.8070654,1.39758582 L42.8070654,1.39758582 L42.8070654,10.0726219 L43.8128667,10.0726219 L43.8128667,6.39230353 C44.064317,6.39230353 44.3157673,6.39230353 44.5672177,6.39230353 C45.5730189,6.39230353 46.3273699,6.12942365 47.0817209,5.34078401 C47.5846215,4.81502425 47.8360718,4.28926449 47.5846215,3.50062485 C47.5846215,2.71198521 47.3331712,2.18622546 46.8302705,1.6604657 C46.3273699,1.39758582 45.5730189,0.871826056 44.5672177,1.13470594 L44.5672177,1.13470594 Z M43.5614164,1.92334558 C43.8128667,1.92334558 44.3157673,1.92334558 44.5672177,1.92334558 C45.8244693,1.92334558 46.5788202,2.44910533 46.5788202,3.76350473 C46.5788202,5.07790413 45.8244693,5.60366389 44.3157673,5.60366389 C44.064317,5.60366389 43.8128667,5.60366389 43.3099661,5.60366389 L43.5614164,1.92334558 Z" id="Shape"></path>
                            <path d="M57.391184,3.50062485 L55.8824821,7.44382305 C55.8824821,7.70670293 55.6310317,7.96958281 55.6310317,8.49534257 L55.3795814,7.70670293 L53.8708795,3.76350473 L53.8708795,3.76350473 L52.8650782,3.76350473 L55.1281311,9.54686209 C55.1281311,9.54686209 55.1281311,9.80974197 55.1281311,9.80974197 C55.1281311,9.80974197 55.1281311,9.80974197 55.1281311,10.0726219 C54.8766808,10.5983816 54.6252305,11.1241414 54.1223298,11.6499011 C53.8708795,11.912781 53.6194292,12.1756609 53.1165285,12.1756609 L52.8650782,12.1756609 L53.6194292,12.9643005 L53.6194292,12.9643005 C53.8708795,12.7014207 54.1223298,12.4385408 54.3737801,12.4385408 C55.3795814,11.3870213 55.8824821,10.0726219 56.3853827,8.75822245 L58.1455349,4.02638461 L58.1455349,3.76350473 L57.391184,3.50062485 Z" id="Shape"></path>
                            <path d="M34.2577546,8.49534257 L34.2577546,6.12942365 C34.2577546,4.55214437 33.5034036,3.50062485 31.9947017,3.50062485 C31.2403507,3.50062485 30.7374501,3.76350473 30.2345494,4.02638461 L30.2345494,4.02638461 L30.7374501,4.81502425 L30.7374501,4.81502425 C31.2403507,4.55214437 31.491801,4.28926449 31.9947017,4.28926449 L31.9947017,4.28926449 C32.246152,4.28926449 32.7490526,4.28926449 33.000503,4.55214437 C33.2519533,4.81502425 33.5034036,5.34078401 33.2519533,5.86654377 C32.246152,5.86654377 30.9889004,6.12942365 30.2345494,6.91806329 C29.7316488,7.18094317 29.7316488,7.70670293 29.7316488,8.49534257 C29.7316488,9.54686209 30.4859998,10.3355017 31.491801,10.3355017 C31.491801,10.3355017 31.491801,10.3355017 31.7432514,10.3355017 C32.4976023,10.3355017 33.000503,10.0726219 33.5034036,9.54686209 L33.5034036,10.0726219 L34.5092049,10.0726219 L34.5092049,9.80974197 C34.2577546,9.28398221 34.2577546,8.75822245 34.2577546,8.49534257 M31.2403507,7.44382305 C31.9947017,6.91806329 32.7490526,6.65518341 33.5034036,6.91806329 L33.5034036,6.91806329 L33.5034036,7.96958281 C33.5034036,7.96958281 33.5034036,8.23246269 33.5034036,8.23246269 C33.2519533,9.02110233 32.4976023,9.28398221 31.7432514,9.28398221 C31.2403507,9.28398221 30.7374501,8.75822245 30.7374501,8.23246269 C30.7374501,8.23246269 30.7374501,8.23246269 30.7374501,7.96958281 C30.7374501,7.96958281 30.9889004,7.44382305 31.2403507,7.44382305" id="Shape"></path>
                            <path d="M52.1107273,8.49534257 L52.1107273,6.12942365 C52.1107273,4.55214437 51.3563763,3.50062485 49.8476744,3.50062485 C49.3447737,3.50062485 48.5904228,3.76350473 48.0875221,4.02638461 L48.0875221,4.02638461 L48.5904228,4.81502425 L48.5904228,4.81502425 C49.0933234,4.55214437 49.3447737,4.55214437 49.8476744,4.55214437 L49.8476744,4.55214437 C50.0991247,4.55214437 50.6020253,4.55214437 50.8534757,4.81502425 C51.104926,5.07790413 51.3563763,5.60366389 51.3563763,6.12942365 C50.350575,6.12942365 49.0933234,6.39230353 48.3389725,7.18094317 C48.0875221,7.44382305 47.8360718,8.23246269 47.8360718,8.75822245 C47.8360718,9.80974197 48.5904228,10.5983816 49.5962241,10.5983816 C49.5962241,10.5983816 49.5962241,10.5983816 49.8476744,10.5983816 C50.6020253,10.5983816 51.104926,10.3355017 51.6078266,9.80974197 L51.6078266,10.3355017 L52.6136279,10.3355017 L52.6136279,10.0726219 C52.3621776,9.28398221 52.3621776,8.75822245 52.1107273,8.49534257 L52.1107273,8.49534257 Z M51.6078266,7.96958281 C51.6078266,7.96958281 51.6078266,8.23246269 51.6078266,8.23246269 C51.3563763,9.02110233 50.6020253,9.28398221 50.0991247,9.28398221 C49.5962241,9.28398221 49.0933234,9.02110233 49.0933234,8.23246269 C49.0933234,8.23246269 49.0933234,8.23246269 49.0933234,7.96958281 C49.0933234,7.70670293 49.0933234,7.44382305 49.3447737,7.18094317 C50.0991247,6.65518341 50.8534757,6.39230353 51.6078266,6.65518341 L51.6078266,6.65518341 L51.6078266,7.96958281 Z" id="Shape"></path>
                        </g>
                    </g>
                </g>
            </g>
        </g>
    </g>
</svg>