<?xml version="1.0" encoding="UTF-8"?>
<svg width="38px" height="24px" viewBox="0 0 38 24" version="1.1" xmlns="http://www.w3.org/2000/svg" xmlns:xlink="http://www.w3.org/1999/xlink">
    <!-- Generator: Sketch 47.1 (45422) - http://www.bohemiancoding.com/sketch -->
    <title>card_item</title>
    <desc>Created with Sketch.</desc>
    <defs></defs>
    <g id="Symbols" stroke="none" stroke-width="1" fill="none" fill-rule="evenodd">
        <g id="card_item" fill-rule="nonzero">
            <g id="paynow">
                <path d="M35,0 L3,0 C1.3,0 0,1.3 0,3 L0,21 C0,22.7 1.4,24 3,24 L35,24 C36.7,24 38,22.7 38,21 L38,3 C38,1.3 36.6,0 35,0 Z" id="Shape" fill="#000000" opacity="0.07"></path>
                <path d="M35,1 C36.1,1 37,1.9 37,3 L37,21 C37,22.1 36.1,23 35,23 L3,23 C1.9,23 1,22.1 1,21 L1,3 C1,1.9 1.9,1 3,1 L35,1" id="Shape" fill="#FFFFFF"></path>
            </g>
            <g id="icon-card" transform="translate(5.000000, 2.000000)">
                <rect id="Rectangle-path" fill="#E8B6AD" x="0" y="0.1375" width="28.125" height="19.81875" rx="5"></rect>
                <rect id="Rectangle-path" fill="#262B64" x="0" y="3.203125" width="28.125" height="3.509375"></rect>
                <rect id="Rectangle-path" fill="#FFFFFF" x="2.528125" y="8.23125" width="23.25625" height="2.878125"></rect>
                <rect id="Rectangle-path" fill="#262B64" x="15.1375" y="14.353125" width="10.646875" height="1.0125"></rect>
                <rect id="Rectangle-path" fill="#262B64" x="15.1375" y="16.0625" width="10.646875" height="1.0125"></rect>
                <circle id="Oval" fill="#DBDCDE" cx="4.221875" cy="15.81875" r="1.690625"></circle>
                <circle id="Oval" fill="#E46949" cx="6.834375" cy="15.81875" r="1.690625"></circle>
            </g>
        </g>
    </g>
</svg>