<svg width="32" height="14" viewBox="0 0 32 14" fill="none" xmlns="http://www.w3.org/2000/svg">
<path fill-rule="evenodd" clip-rule="evenodd" d="M0 2.5119C0 1.1247 1.11108 -3.05176e-05 2.48095 -3.05176e-05H29.5191C30.8895 -3.05176e-05 32 1.1247 32 2.5119V11.4886C32 12.875 30.8895 14 29.5191 14H2.48095C1.11108 14 0 12.875 0 11.4886V2.5119Z" fill="#000268"/>
<path fill-rule="evenodd" clip-rule="evenodd" d="M1.01831 2.59785V11.4035C1.01831 12.2702 1.7128 12.9731 2.56947 12.9731H16.735V1.02821H2.56947C1.7128 1.02821 1.01831 1.73114 1.01831 2.59785ZM20.3951 6.9567C20.3951 7.51733 20.1226 7.90265 19.6713 7.90265C19.2727 7.90265 18.9404 7.51733 18.9404 7.00392C18.9404 6.47693 19.2326 6.08513 19.6713 6.08513C20.1365 6.08513 20.3951 6.49051 20.3951 6.9567ZM17.7456 10.1722H18.9404V8.26019H18.9537C19.18 8.67915 19.6319 8.83441 20.05 8.83441C21.079 8.83441 21.6301 7.96994 21.6301 6.92953C21.6301 6.07864 21.1057 5.15255 20.1493 5.15255C19.6052 5.15255 19.1005 5.37572 18.8609 5.86905H18.8475V5.23424H17.7456V10.1722ZM23.2619 7.63874C23.2619 7.30126 23.5803 7.17337 23.9859 7.17337C24.165 7.17337 24.3379 7.18614 24.4905 7.19343C24.4905 7.6053 24.2051 8.02426 23.7532 8.02426C23.4743 8.02426 23.2619 7.88258 23.2619 7.63874ZM25.6719 8.75354C25.6191 8.47687 25.6058 8.19938 25.6058 7.92272V6.61212C25.6058 5.53807 24.8426 5.15255 23.9592 5.15255C23.4482 5.15255 23.0033 5.22693 22.5782 5.40287L22.5985 6.22741C22.9294 6.03789 23.3153 5.96351 23.7004 5.96351C24.1313 5.96351 24.4834 6.09222 24.4905 6.57199C24.3379 6.54483 24.125 6.52415 23.9325 6.52415C23.2956 6.52415 22.1467 6.65286 22.1467 7.72671C22.1467 8.49045 22.7573 8.83441 23.4412 8.83441C23.9325 8.83441 24.2648 8.63922 24.537 8.19938H24.5503C24.5503 8.38242 24.5698 8.56402 24.577 8.75354H25.6719ZM26.2096 10.1722C26.4555 10.2265 26.7009 10.2539 26.9531 10.2539C28.0489 10.2539 28.3075 9.39566 28.6462 8.51051L29.9148 5.23424H28.7193L28.0088 7.53092H27.9955L27.2518 5.23424H25.9642L27.3649 8.83441C27.2785 9.14534 27.053 9.32127 26.7605 9.32127C26.5939 9.32127 26.4485 9.30059 26.2889 9.24689L26.2096 10.1722Z" fill="white"/>
<path fill-rule="evenodd" clip-rule="evenodd" d="M3.93718 6.9638C3.93718 6.48403 4.16988 6.08513 4.61474 6.08513C5.15246 6.08513 5.37798 6.52415 5.37798 6.91596C5.37798 7.45654 5.03929 7.82117 4.61474 7.82117C4.25634 7.82117 3.93718 7.51086 3.93718 6.9638ZM6.53348 5.23425H5.45109V5.86906H5.43854C5.18552 5.43653 4.77352 5.15255 4.26271 5.15255C3.1873 5.15255 2.70239 5.93696 2.70239 6.98386C2.70239 8.02426 3.29348 8.75355 4.2422 8.75355C4.72093 8.75355 5.11938 8.56403 5.40467 8.15217H5.41802V8.34168C5.41802 9.03042 5.04627 9.36142 4.35615 9.36142C3.85789 9.36142 3.55208 9.25338 3.1873 9.07117L3.12753 10.0307C3.40586 10.1322 3.87742 10.2539 4.44899 10.2539C5.84336 10.2539 6.53348 9.78747 6.53348 8.34168V5.23425ZM8.55341 3.76839H7.35806V4.66002H8.55341V3.76839ZM7.35867 8.75355H8.55341V5.23425H7.35867V8.75355ZM11.8813 5.1933C11.7617 5.17343 11.6155 5.15255 11.4764 5.15255C10.9585 5.15255 10.6598 5.43653 10.4538 5.88264H10.4405V5.23425H9.35171V8.75355H10.5467V7.26783C10.5467 6.57849 10.8592 6.16662 11.4167 6.16662C11.5565 6.16662 11.6886 6.16662 11.8215 6.20654L11.8813 5.1933ZM13.9391 7.98353C13.388 7.98353 13.1625 7.51734 13.1625 6.99744C13.1625 6.47045 13.388 6.00426 13.9391 6.00426C14.4907 6.00426 14.7164 6.47045 14.7164 6.99744C14.7164 7.51734 14.4907 7.98353 13.9391 7.98353ZM13.9391 8.83442C15.0812 8.83442 15.9512 8.15946 15.9512 6.99744C15.9512 5.82833 15.0812 5.15255 13.9391 5.15255C12.7971 5.15255 11.9277 5.82833 11.9277 6.99744C11.9277 8.15946 12.7971 8.83442 13.9391 8.83442Z" fill="#FF0007"/>
</svg>
