<svg xmlns="http://www.w3.org/2000/svg" role="img" viewBox="0 0 38 24" width="38" height="24" aria-labelledby="pi-zip">
  <path fill="#1a0826" d="M6.5 14.7l.2 1.9h8l-.2-2.2h-3.8v-.2l3.4-2.4-.2-1.9h-8l.3 2.1h3.7v.3z"/>
  <path fill="#aa8fff" d="M14.8 9.9l.9 6.7h8l-.8-6.7z"/>
  <path d="M32.1 12.3c-.2-1.5-1.4-2.4-3-2.4h-5.3l.8 6.7H27l-.2-1.3h2.5c2.1-.1 3-1.3 2.8-3zm-3 1.1h-2.5l-.2-1.6h2.5c.6 0 .9.3.9.8.1.2 0 .8-.7.8z" fill="#1a0826"/>
  <ellipse transform="rotate(-46.771 16.352 8.156)" cx="16.4" cy="8.2" rx="1.1" ry="1.3" fill="#1a0826"/>
</svg>